<mxfile host="app.diagrams.net" modified="2022-09-23T02:36:23.950Z" agent="5.0 (Windows NT 10.0; Win64; x64) AppleWebKit/537.36 (KHTML, like Gecko) Chrome/105.0.0.0 Safari/537.36" etag="Gwlen26GetOoTCdNveOA" version="20.3.6" type="github">
  <diagram id="7Oh7YqClikmjgrJn1_EN" name="Introdução RabbitMQ">
    <mxGraphModel dx="1067" dy="737" grid="1" gridSize="10" guides="1" tooltips="1" connect="1" arrows="1" fold="1" page="1" pageScale="1" pageWidth="827" pageHeight="1169" math="0" shadow="0">
      <root>
        <mxCell id="0" />
        <mxCell id="1" parent="0" />
        <mxCell id="ARlSl7viPa6SG5bke6_x-6" value="" style="edgeStyle=orthogonalEdgeStyle;rounded=0;orthogonalLoop=1;jettySize=auto;html=1;" edge="1" parent="1" source="ARlSl7viPa6SG5bke6_x-1" target="ARlSl7viPa6SG5bke6_x-5">
          <mxGeometry relative="1" as="geometry" />
        </mxCell>
        <mxCell id="ARlSl7viPa6SG5bke6_x-1" value="Fila" style="strokeWidth=2;html=1;shape=mxgraph.flowchart.direct_data;whiteSpace=wrap;" vertex="1" parent="1">
          <mxGeometry x="200" y="150" width="210" height="40" as="geometry" />
        </mxCell>
        <mxCell id="ARlSl7viPa6SG5bke6_x-2" value="" style="shape=image;verticalLabelPosition=bottom;labelBackgroundColor=default;verticalAlign=top;aspect=fixed;imageAspect=0;image=data:image/jpeg,/9j/4AAQSkZJRgABAQEASABIAAD/2wBDAAMCAgICAgMCAgIDAwMDBAYEBAQEBAgGBgUGCQgKCgkICQkKDA8MCgsOCwkJDRENDg8QEBEQCgwSExIQEw8QEBD/2wBDAQMDAwQDBAgEBAgQCwkLEBAQEBAQEBAQEBAQEBAQEBAQEBAQEBAQEBAQEBAQEBAQEBAQEBAQEBAQEBAQEBAQEBD/wAARCAPAA4QDAREAAhEBAxEB/8QAHQABAQEAAwEBAQEAAAAAAAAAAAUGBAcIAgkDAf/EAFYQAQAAAQYIBwsIBwgCAQQDAAACAQMEBRWCBhESRGSiweEHCBMzUXKRITE1N1JVYWOTs9EUGDZBU3FzdCIyQ4GxstIjQlRWdZSh02LigySEhZIWRcP/xAAcAQEAAQUBAQAAAAAAAAAAAAAACAEDBAYHAgX/xABEEQEAAQEDBQsJBwQDAQEBAQAAAQIDBAUHEjJRkQYRFCExNlJTcXKyFzRBYYGxwdHSEyI1gpKh4UJiosIjc/AVFiVj/9oADAMBAAIRAxEAPwD9UwAdU8L3DVgbgBLN0KkUn5fWkEkUvyGjRSSxw48WLLl70H7+76Go7od2mG7nt+ztJz7Xo08vtn0e/wBTc9ze4bFN0m9aWdOZZdOrk9kcs+71vNeFPGN4Qq/jjm6spU1U1Gl70FFhxzmL0zkXdx/dicfxXKPjOITMWFUWVOqnl2zx7N52rCMmOB4dEVXimbavXVyfpji277rqsK/rytpyWdrSuKbS44u/LPT8Uf8AGVpd4xC93uc63taqp9czLebth1zudObd7KmmPVER7nBYjNf4AAAAAAAAAAAD/ZJZYZccMsskvoIne5FJiJ5VeqcMcK6ijknKnwirCiSyfVN0iKSTsx4n0rpjGIXCc67W1VPZM+7kfMvmCYbiEZt6sKKu2mPfyu4cCeNvhtUs5N0bC+iTFeUSTFJFOSSSTNIhk6ccn6MX75P3t7wjKfiN0mKL/TFrTr5Kv24p2e1z3GslGGXyJrw6qbKvVpU/vxx7J9j0zgDwn4HcJNAlpmDNZwzk5BJJLPUWd/Qn5nrQ9Hpkxyel2TBN0WH4/ZfaXOvfmOWmeKqO2PjyOI49uZxHc5a/Z36jeieSqOOmeyfhPGq19m97Y+4+AkAA1wAJFfZve2AkAA1wAJFfZve2AkAA1wAJFfZve2AkAA1wAJFfZve2AkAA5WG/CFgnweVbaeFFazdGhix8lMyfpTs9L0QQSd2X+En1yvkYxjlxwKx+2vtebqj0z2R/6H2cFwDEN0Fv9hcbPOn0zyRHbPo97zNhxxvMK60nJyi4EVdM1RRe7JDSJ+GSepEUnTil/Rh7JfvccxjKjfrzM0YbRFnTrnjq+Ufv2u24JkluF1iLTFK5tatUcVPzn9ux07XuH2GuE07LO17hTWVMll/uzlIiyZPuhklxSdjQL5jmJYhO/ebeqrtmd7ZyOjXLAMLw6M263einspjf28qDFFFHLlRRSyy9Msr5czM8cvrRERxQ/wAFQAAAAAAAAAAAHNoNdVxVkck7V1a0yixw92SWZn4oJZOyVk2F9vN1nOsLSqmfVMx7mJeLjdb3Tm29nTVHriJ97f4McYXhGwejggpdZQ1vRpO/NU2HKixeiOTFF2424YXlDxvDpiLSv7WnVV8+X3tKxbJrgWJRM2dn9lVro4o/TPF7nfvB5w6YI4dxTdXzkctV1pH3JKLSIpMU5L6uPvRfd3JfQ69ud3dYdj0xY1T9naz/AEz6e7Pp7OKXGN0uT7E9z0Tb0x9rYx/VT6O9Ho7eOPW71bs0MBIr7N72wEgAGuABIr7N72wEgAGuABIr7N72wEgAGuABIr7N72wEgAGuABIr7N72wEgAGuABIr7N72wEgAGuABIr7N72wEgAGuABIr7N72wEgAGuABIr7N72wEgAGuAAAB574wvGEjwWjnsCMCKTDa2LJptNh7vyWSX+5B6zpl/u/f3uVbud3M4bM4bhtX/L/VV0fVH93u7eTr24DcBGKRTimKU/8X9NPS9c/wBvv7OXyTPz8/Sp6Ok0mejnZ2diljjjjiliiiil78sssvflcJrrqtKprrnfmeWZSCoopsqYoojeiOSIfzeXsAAAAAAAAAAAAAAAABQqHCCucGK1mK6qGsJ6hU2jRZU3OzUWKX7pemSX65Je5Kyrlfrxh1vTeLrXNNcckx/79mHfrhdsTsKrte6Iqoq5Yn/3L63sbgs4aaDwqVRM0WmwzdFr6gwy/KpiHuQzsPck5WD0S/XJ9Uv7kjtx266y3SWH2drvU29OlGv+6PVrj0IxbttxlruXvH2llv1WFc/dnVPRn16p9LdN1aKA1wAJFfZve2AkAA1wAJFfZve2AkAA1wAJFfZve2AkAA1wAJFfZve2AkAwvCvwpVbwa1NJOyyQUitKVJLJQ6Lj78vlxdEMn/Peanus3U2G5q7Z0/etatGn4z6o/fkbhuP3I3jdTes2Pu2NOlV8I9c/tyvIGFOFdf4Z1xPV7hHWM5TKXPS92KKX9GCT6oYZO9DDJ9UkiNmJYnesWvFV5vdc1VT+3qiPRCUWF4VdMHu1N1uVEU0R+/rmfTPrSGC+iAAAAAAAAAAAAAAAAA/2GKKCKSOCKWGKGXHJLJLilklViZpnfhSYiqN6eR6k4vXGJn6bP0bATD6m5c7OYpqr6xnYu7FL9U1Oy/XL0Rful6Xadw27uq2qpwzFKt+Z4qK58NXwn2S4Vu/yfU2NNWK4TTvRHHXRHo11U/GPbD0y7G4kkV9m97YCQADXAAkV9m97YCQADXAAkV9m97YCQADXAAkV9m97YCQADXAAkV9m97YCQADXAAkV9m97YCQADXAAkV9m97YCQADXAAkV9m97YCQADXAAkV9m97YCQADXAAA6q4aeF6XADA2fpNCmYYK0p2OjUHHFjyY5ZO7OYsX92Tu/fialuz3Q/wD57DZtLOf+Wv7tPb6Z9kfvvNy3D7m//wBJilNlaR/xUfer7PRHtn9t94an5+epU/OUmkzsU7OzsUsccccuOKKKWXHLLLL9cuNGGuuq0qmuud+Z45lK6zs6bKiKKI3ojiiNUP5vL2AAAAAAAAAAAAAAAAAAAqYM4R1ngnXlEr+qJ6WbpNEnJI5O73I5Prhl6ZJZO5Kz8MxG3wm90Xy7TvVUzv8AbrifVL52K4Zd8YuddyvMb9Ncb3ZqmPXHLD3xgXTauw3wXq/Ciq6d/YU6ZkjycnHLNx96KCXu9+SWSWT9yVuE4nZYxcrO+2PJXG/2T6Y9k8SIGM4XbYLfrS42+lRO92x6J9sca3YOmam99F8wt7Q9fcBb2h6+4Dw36nkb2Vj7OgCwdM1N4Fg6ZqbwLe0PX3AW9oevuA8N+p5G9lY+zoAsHTNTeBYOmam8C3tD19wFvaHr7gPDfqeRvZWPs6ALB0zU3gWDpmpvAt7Q9fcBb2h6+4Dw36nkb2Vj7OgE7CKz8GKjp2EFa1jydEoExFPzsuR3cUknek7vfll7knplYl/vtlh12rvdvO9TREzLMw+422J3qzud3jfrrmIj2/LleBsNsLqyw4wjpeENZxyyxz8eKam8fcmpuT9WCT0SSf8AOOVFLG8Xt8cvtd9t546uSNUeiI7Ev8BwW74BcKLjd44qY451z6Znt/hCfKfYAAAAAAAAAAAAAAAAAAAf7DFFBFJFDFLJFJLjklkl7skpEzE78KTETG9L2rxf+GGdw1wRhq+toeWrep5IZikRyx4op6b/ALk5L3O/ikxS+mT0pJbgt0c47h/2VvO/a2W9E+uPRPwn19qL2UTcxG5/EftbvG9Y2u/NPqn00/GPVPqdo+G/U8jeysfZ0N7c+LB0zU3gWDpmpvAt7Q9fcBb2h6+4Dw36nkb2Vj7OgCwdM1N4Fg6ZqbwLe0PX3AW9oevuA8N+p5G9lY+zoAsHTNTeBYOmam8C3tD19wFvaHr7gPDfqeRvZWPs6ALB0zU3gWDpmpvAt7Q9fcBb2h6+4Dw36nkb2Vj7OgCwdM1N4Fg6ZqbwLe0PX3AW9oevuA8N+p5G9lY+zoAsHTNTeBYOmam8C3tD19wFvaHr7gPDfqeRvZWPs6ALB0zU3gWDpmpvAt7Q9fcBb2h6+4Dw36nkb2Vj7OgCwdM1N4Fg6ZqbwLe0PX3AW9oevuA8N+p5G9lY+zoAsHTNTeBYOmam8C3tD19wFvaHr7gLe0PX3A8W8Y/CmOvuEGdqubnMdGqabko0EmPucpL+lHL2yySXUcspGKTf8Zm7xP3bKM2O3ln5exJzJhhEYdglN4qj79tOdPZyU/P2uqnP3RwAAAAAAAAAAAAAAAAAAAAHqLibYYTkc3XOA9JnZZYZrFWFFhll70ksskM5JJ+/Il/fK7RkoxWaotsNrnk+/T7qvg4XlgwiKZsMUojl+5V76fjD047K4gyIAK9Q5xd2grgAyIAK9Q5xd2grgAyIAK9Q5xd2grgAyIAK9Q5xd2g6O44eGE5V+DdV4G0WdlhirWelpNIkkl781N4smSX0SxS47rlGVTFZsLnZYfRPHaTvz2U8m2fc7DkiwiLxfbXEq44rOM2O2rl2R73klwlIIAAAAAAAAAAAAAAAAAAAAB2DwFYUx4L8I1WxRTuTRqxi+Qz8mPuSyR9yGWX7osmVuO4TFZwvGrKZn7tp9yfbybJ3mk5QcIjFsCtoiPv2f36fy8u2N97mqHOLu1JxFJXABkQAV6hzi7tBXABkQAV6hzi7tBXABkQAV6hzi7tBXABkQAV6hzi7tBXABkQAV6hzi7tBXABkQAV6hzi7tBXABkQAV6hzi7tBXABkQAV6hzi7tBXABkQAAeAcJKxnK3wgrKtJ2LKipVLnZ6WXrRSyof4leJvd8tberlqqmdspqYXdqbncrG708lNNMbIhNYTPAAAAAAAAAAAAAAAAAAAAAdq8WOs46u4Yqom4YsUNNm5+jRydMks3FFJ/zDI3fJ5eJsN0FjEf1RVT+0z74aFlKu0Xjc5bTP8ATNNX+UR7pe6UlkWWRABXqHOLu0FcAGRABXqHOLu0FcAGRABXqHOLu0FcAGRABXqHOLu0HkHja1nOU3hWloUsWOCgVfMTUMnRLFjjl/mR2ynXibbHPs/RRRTG3fn4pMZKbtFjgH2vprrqnZvR8HSznbpYAAAAAAAAAAAAAAAAAAAAD+1EpE5RKXM0ualxRzM5DOQy9EskuOT+C5Y2k2NpTaU8sTE7Fq2sotrOqyq5JiY2v0awSpElMoPyuTvT81NTnbJLLtTEsLT7ayptNcRO2EJ7xZfY21dnqmY2SvLqyAyIAK9Q5xd2grgAyIAK9Q5xd2grgAyIAK9Q5xd2grgAyIAK9Q5xd2grgAyIAK9Q5xd2grgAyIAK9Q5xd2grgAyIAK9Q5xd2grgAyIAK9Q5xd2grgAyIAAPzynedj60v8UM6tKU4adGHwo9AAAAAAAAAAAAAAAAAAAAANzwI+NTB78zF/JE2vcPzgu3e+EtQ3e83L13Y98Pa6USJbXAAkV9m97YCQADXAAkV9m97YCQADXAAkV9m97YCQADXAAkV9m97YDxHxivGvWn4VH91CjVlF5w23ZT4YSlyZ827Htr8UutGjt+AAAAAAAAAAAAAAAAAAAAAAfonQ/ovg/8AkJn3cCYGG+ZWPdp90IV4p59bd+r3y+GawAGuABIr7N72wEgAGuABIr7N72wEgAGuABIr7N72wEgAGuABIr7N72wEgAGuABIr7N72wEgAGuABIr7N72wEgAGuABIr7N72wEgAGuABIr7N72wEgAGuAAB+Yk7zsfWlQzq0pThp0YfCj0AAAAAAAAAAAAAAAAAAAAA3PAh41MHvzEXu4m17h+cF270+6Wn7vubl67seKHtdKJExrgASK+ze9sBIABrgASK+ze9sBIABrgASK+ze9sBIABrgASK+ze9sB4j4xPjXrT8Kj+6hRqyi84bbsp8MJS5M+bdj21+KXWjR2/AAAAAAAAAAAAAAAAAAAAAAP0Sof0Xwf/ITPu4EwMN8yse7T7oQrxTz6279Xvl8s1gANcACRX2b3tgJAANcACRX2b3tgJAANcACRX2b3tgJAANcACRX2b3tgJAANcACRX2b3tgJAANcACRX2b3tgJAANcACRX2b3tgJAANcACRX2b3tgJAANcAAD8xJ3nI+tKhnVpSnDTow+FHoAAAAAAAAAAAAAAAAAAAABvuAaY+UcLeDkzlZOVSYu7ix4v7OJte4fnBdu2fdLT933Ny9d2PFD3TYOmam9KJEwt7Q9fcBb2h6+4Dw36nkb2Vj7OgCwdM1N4Fg6ZqbwLe0PX3AW9oevuA8N+p5G9lY+zoAsHTNTeBYOmam8C3tD19wFvaHr7gPDfqeRvZWPs6ALB0zU3gWDpmpvAt7Q9fcBb2h6+4Dw36nkb2Vj7OgHinjK0f5LwvVtM5eXimqN3cWL9jCjVlF5w23ZT4YSlyZ827Htr8Uurmjt+AAAAAAAAAAAAAAAAAAAAAAfopgvDbGDNUQ81yFBo8nlZWObh+7yUwMN8yse7T7oQrxTz6279XvlTsHTNTezWAWDpmpvAt7Q9fcBb2h6+4Dw36nkb2Vj7OgCwdM1N4Fg6ZqbwLe0PX3AW9oevuA8N+p5G9lY+zoAsHTNTeBYOmam8C3tD19wFvaHr7gPDfqeRvZWPs6ALB0zU3gWDpmpvAt7Q9fcBb2h6+4Dw36nkb2Vj7OgCwdM1N4Fg6ZqbwLe0PX3AW9oevuA8N+p5G9lY+zoAsHTNTeBYOmam8C3tD19wFvaHr7gPDfqeRvZWPs6ALB0zU3gWDpmpvAt7Q9fcBb2h6+4Dw36nkb2Vj7OgCwdM1N4Fg6ZqbwLe0PX3AW9oevuA8N+p5G9lY+zoAsHTNTeBYOmam8C3tD19wFvaHr7gLe0PX3A/Nqc5yLrSoZ1aUpw06MPlR6AAAAAAAAAAAAAAAAAAAAAdicXzxx4M/mY/dRtr3Dc4Lt2z7padu+5uXrux4oe+kokTWRABXqHOLu0FcAGRABXqHOLu0FcAGRABXqHOLu0FcAGRABXqHOLu0Hi/jQeOWuPwaL7mFGrKLzhtuynwwlLkz5t2PbX4pdUNHb8AAAAAAAAAAAAAAAAAAAAAA/RXg8+jdC/JUb+RMDDfMrHu0+6EK8U8+tu/V75almsABkQAV6hzi7tBXABkQAV6hzi7tBXABkQAV6hzi7tBXABkQAV6hzi7tBXABkQAV6hzi7tBXABkQAV6hzi7tBXABkQAV6hzi7tBXABkQAV6hzi7tBXABkQAAfnjOc5F1pUM6tKU4adGHyo9AAAAAAAAAAAAAAAAAAAAAOxOL3448GfzEfuo22bhucF27Z8MtO3f8ANy9d2PFD30lCiayIAK9Q5xd2grgAyIAK9Q5xd2grgAyIAK9Q5xd2grgAyIAK9Q5xd2g8X8aDxy1x+DRfcwo1ZRecNt2U+GEpcmfNux7a/FLqho7fgAAAAAAAAAAAAAAAAAAAAAH6K8Hn0boX5KjfyJgYb5lY92n3QhXinn1t36vfLUs1gAMiACvUOcXdoK4AMiACvUOcXdoK4AMiACvUOcXdoK4AMiACvUOcXdoK4AMiACvUOcXdoK4AMiACvUOcXdoK4AMiACvUOcXdoK4AMiACvUOcXdoK4AMiAAD88p3nY+tKhnVpSnDTow+FHoAAAAAAAAAAAAAAAAAAAABu+A3xq4P/AI8fu4m2bhecF27Z8MtN3f8ANy9dkeKHtVKFE5rgASK+ze9sBIABrgASK+ze9sBIABrgASK+ze9sBIABrgASK+ze9sB4j4xPjXrT8Kj+6hRqyi84bbsp8MJS5M+bdj21+KXWjR2/AAAAAAAAAAAAAAAAAAAAAAP0Sof0Xwf/ACEz7uBMDDfMrHu0+6EK8U8+tu/V75fLNYADXAAkV9m97YCQADXAAkV9m97YCQADXAAkV9m97YCQADXAAkV9m97YCQADXAAkV9m97YCQADXAAkV9m97YCQADXAAkV9m97YCQADXAAkV9m97YCQADXAAA/MSd52PrSoZ1aUpw06MPhR6AAAAAAAAAAAAAAAAAAAAAbzgM8a1QfjR+7jbbuF5wXbtnwy03KBzbvXZHih7USgROa4AEivs3vbASAAa4AEivs3vbASAAa4AEivs3vbASAAa4AEivs3vbAeI+MT4160/Co/uoUasovOG27KfDCUuTPm3Y9tfil1o0dvwAAAAAAAAAAAAAAAAAAAAAD9EqH9F8H/yEz7uBMDDfMrHu0+6EK8U8+tu/V75fLNYADXAAkV9m97YCQADXAAkV9m97YCQADXAAkV9m97YCQADXAAkV9m97YCQADXAAkV9m97YCQADXAAkV9m97YCQADXAAkV9m97YCQADXAAkV9m97YCQADXAAA/MSd5yPrSoZ1aUpw06MPhR6AAAAAAAAAAAAAAAAAAAAAdg8AUx8p4XcHZnLycqenO7ix4v7KNtu4XnBdu2fDLTcoHNu9dkeKHuawdM1N6UCJxb2h6+4C3tD19wHhv1PI3srH2dAFg6ZqbwLB0zU3gW9oevuAt7Q9fcB4b9TyN7Kx9nQBYOmam8CwdM1N4FvaHr7gLe0PX3AeG/U8jeysfZ0AWDpmpvAsHTNTeBb2h6+4C3tD19wHhv1PI3srH2dAPFPGVo/yXheraZy8vFNUbu4sX7GFGrKLzhtuynwwlLkz5t2PbX4pdXNHb8AAAAAAAAAAAAAAAAAAAAAA/RTBeG2MGaoh5rkKDR5PKysc3D93kpgYb5lY92n3QhXinn1t36vfKnYOmam9msAsHTNTeBb2h6+4C3tD19wHhv1PI3srH2dAFg6ZqbwLB0zU3gW9oevuAt7Q9fcB4b9TyN7Kx9nQBYOmam8CwdM1N4FvaHr7gLe0PX3AeG/U8jeysfZ0AWDpmpvAsHTNTeBb2h6+4C3tD19wHhv1PI3srH2dAFg6ZqbwLB0zU3gW9oevuAt7Q9fcB4b9TyN7Kx9nQBYOmam8CwdM1N4FvaHr7gLe0PX3AeG/U8jeysfZ0AWDpmpvAsHTNTeBb2h6+4C3tD19wHhv1PI3srH2dAFg6ZqbwLB0zU3gW9oevuAt7Q9fcB4b9TyN7Kx9nQBYOmam8CwdM1N4FvaHr7gLe0PX3AW9oevuB+bU5zkXWlQzq0pThp0YfKj0AAAAAAAAAAAAAAAAAAAAA7H4u/jkwb/ABp33MbbdwnOC7ds+GWmZQebd67I8UPe6UCJ7IgAr1DnF3aCuADIgAr1DnF3aCuADIgAr1DnF3aCuADIgAr1DnF3aDxfxoPHLXH4NF9zCjVlF5w23ZT4YSlyZ827Htr8UuqGjt+AAAAAAAAAAAAAAAAAAAAAAforwefRuhfkqN/ImBhvmVj3afdCFeKefW3fq98tSzWAAyIAK9Q5xd2grgAyIAK9Q5xd2grgAyIAK9Q5xd2grgAyIAK9Q5xd2grgAyIAK9Q5xd2grgAyIAK9Q5xd2grgAyIAK9Q5xd2grgAyIAK9Q5xd2grgAyIAAPzxnOci60qGdWlKcNOjD5UegAAAAAAAAAAAAAAAAAAAAHZHF28cuDf4077mNt24TnDdu2fDLTMoPNu9dkeKHvZJ9E9kQAV6hzi7tBXABkQAV6hzi7tBXABkQAV6hzi7tBXABkQAV6hzi7tB4v40Hjlrj8Gi+5hRqyi84bbsp8MJS5M+bdj21+KXVDR2/AAAAAAAAAAAAAAAAAAAAAAP0V4PPo3QvyVG/kTAw3zKx7tPuhCvFPPrbv1e+WpZrAAZEAFeoc4u7QVwAZEAFeoc4u7QVwAZEAFeoc4u7QVwAZEAFeoc4u7QVwAZEAFeoc4u7QVwAZEAFeoc4u7QVwAZEAFeoc4u7QVwAZEAFeoc4u7QVwAZEAAH55TvOx9aVDOrSlOGnRh8KPQAAAAAAAAAAAAAAAAAAAADfcBHjXqD8Wd91G27cHzhu3bPhlpeULm3euyPFD2kk+ig1wAJFfZve2AkAA1wAJFfZve2AkAA1wAJFfZve2AkAA1wAJFfZve2A8R8Ynxr1p+FR/dQo1ZRecNt2U+GEpcmfNux7a/FLrRo7fgAAAAAAAAAAAAAAAAAAAAAH6JUP6L4P/kJn3cCYGG+ZWPdp90IV4p59bd+r3y+WawAGuABIr7N72wEgAGuABIr7N72wEgAGuABIr7N72wEgAGuABIr7N72wEgAGuABIr7N72wEgAGuABIr7N72wEgAGuABIr7N72wEgAGuABIr7N72wEgAGuAAB+Yk7zsfWlQzq0pThp0YfCj0AAAAAAAAAAAAAAAAAAAAA3/AP416h/EnfdRtv3B84bt2z4ZaXlD5t3nsp8UPaKTyKDXAAkV9m97YCQADXAAkV9m97YCQADXAAkV9m97YCQADXAAkV9m97YDxHxifGvWn4VH91CjVlF5w23ZT4YSlyZ827Htr8UutGjt+AAAAAAAAAAAAAAAAAAAAAAfolQ/ovg/+QmfdwJgYb5lY92n3QhXinn1t36vfL5ZrAAa4AEivs3vbASAAa4AEivs3vbASAAa4AEivs3vbASAAa4AEivs3vbASAAa4AEivs3vbASAAa4AEivs3vbASAAa4AEivs3vbASAAa4AEivs3vbASAAa4AAH5iTvOR9aVDOrSlOGnRh8KPQAAAAAAAAAAAAAAAAAAAADsTi+zHynhewemMvJypye7uLHi/sY237gucN37Z8MtKyh827z2U+KHuOwdM1N6TyKJb2h6+4C3tD19wHhv1PI3srH2dAFg6ZqbwLB0zU3gW9oevuAt7Q9fcB4b9TyN7Kx9nQBYOmam8CwdM1N4FvaHr7gLe0PX3AeG/U8jeysfZ0AWDpmpvAsHTNTeBb2h6+4C3tD19wHhv1PI3srH2dAPFPGVo/yXheraZy8vFNUbu4sX7GFGrKLzhtuynwwlLkz5t2PbX4pdXNHb8AAAAAAAAAAAAAAAAAAAAAA/RTBeG2MGaoh5rkKDR5PKysc3D93kpgYb5lY92n3QhXinn1t36vfKnYOmam9msAsHTNTeBb2h6+4C3tD19wHhv1PI3srH2dAFg6ZqbwLB0zU3gW9oevuAt7Q9fcB4b9TyN7Kx9nQBYOmam8CwdM1N4FvaHr7gLe0PX3AeG/U8jeysfZ0AWDpmpvAsHTNTeBb2h6+4C3tD19wHhv1PI3srH2dAFg6ZqbwLB0zU3gW9oevuAt7Q9fcB4b9TyN7Kx9nQBYOmam8CwdM1N4FvaHr7gLe0PX3AeG/U8jeysfZ0AWDpmpvAsHTNTeBb2h6+4C3tD19wHhv1PI3srH2dAFg6ZqbwLB0zU3gW9oevuAt7Q9fcB4b9TyN7Kx9nQBYOmam8CwdM1N4FvaHr7gLe0PX3AW9oevuB+bU5zkXWlQzq0pThp0YfKj0AAAAAAAAAAAAAAAAAAAAA7K4uXjmwc/EnvcTjcNwXOG79tXhlpWUPm3eeynxUveiTqKLIgAr1DnF3aCuADIgAr1DnF3aCuADIgAr1DnF3aCuADIgAr1DnF3aDxfxoPHLXH4NF9zCjVlF5w23ZT4YSlyZ827Htr8UuqGjt+AAAAAAAAAAAAAAAAAAAAAAforwefRuhfkqN/ImBhvmVj3afdCFeKefW3fq98tSzWAAyIAK9Q5xd2grgAyIAK9Q5xd2grgAyIAK9Q5xd2grgAyIAK9Q5xd2grgAyIAK9Q5xd2grgAyIAK9Q5xd2grgAyIAK9Q5xd2grgAyIAK9Q5xd2grgAyIAAPzxnOci60qGdWlKcNOjD5UegAAAAAAAAAAAAAAAAAAAAHZfFw8c2Dv4k97iNuG4HnDd+2rwy0nKJzbvPZT4qXvNJ1FJkQAV6hzi7tBXABkQAV6hzi7tBXABkQAV6hzi7tBXABkQAV6hzi7tB4v40Hjlrj8Gi+5hRqyi84bbsp8MJS5M+bdj21+KXVDR2/AAAAAAAAAAAAAAAAAAAAAAP0V4PPo3QvyVG/kTAw3zKx7tPuhCvFPPrbv1e+WpZrAAZEAFeoc4u7QVwAZEAFeoc4u7QVwAZEAFeoc4u7QVwAZEAFeoc4u7QVwAZEAFeoc4u7QVwAZEAFeoc4u7QVwAZEAFeoc4u7QVwAZEAFeoc4u7QVwAZEAAH55TvOx9aVDOrSlOGnRh8KPQAAAAAAAAAAAAAAAAAAAADsHgE8a9Rdee91G3DcDzhu/wCbwy0nKJzbvPZT4qXs9J1FJrgASK+ze9sBIABrgASK+ze9sBIABrgASK+ze9sBIABrgASK+ze9sB4j4xPjXrT8Kj+6hRqyi84bbsp8MJS5M+bdj21+KXWjR2/AAAAAAAAAAAAAAAAAAAAAAP0Sof0Xwf8AyEz7uBMDDfMrHu0+6EK8U8+tu/V75fLNYADXAAkV9m97YCQADXAAkV9m97YCQADXAAkV9m97YCQADXAAkV9m97YCQADXAAkV9m97YCQADXAAkV9m97YCQADXAAkV9m97YCQADXAAkV9m97YCQADXAAA/MSd52PrSoZ1aUpw06MPhR6AAAAAAAAAAAAAAAAAAAAAdhcAfjXqPrT3uY247gecN3/N4ZaRlF5t3n8vipezknEU2uABIr7N72wEgAGuABIr7N72wEgAGuABIr7N72wEgAGuABIr7N72wHiPjE+NetPwqP7qFGrKLzhtuynwwlLkz5t2PbX4pdaNHb8AAAAAAAAAAAAAAAAAAAAAA/RKh/RfB/wDITPu4EwMN8yse7T7oQrxTz6279Xvl8s1gANcACRX2b3tgJAANcACRX2b3tgJAANcACRX2b3tgJAANcACRX2b3tgJAANcACRX2b3tgJAANcACRX2b3tgJAANcACRX2b3tgJAANcACRX2b3tgJAANcAAD8xJ3nI+tKhnVpSnDTow+FHoAAAAAAAAAAAAAAAAAAAAB2PxeJj5TwvVDM5eTlRT/dxY/2MbcdwHOG7/m8MtIyi827z+XxQ9wWDpmpvScRTLe0PX3AW9oevuA8N+p5G9lY+zoAsHTNTeBYOmam8C3tD19wFvaHr7gPDfqeRvZWPs6ALB0zU3gWDpmpvAt7Q9fcBb2h6+4Dw36nkb2Vj7OgCwdM1N4Fg6ZqbwLe0PX3AW9oevuA8N+p5G9lY+zoB4p4ytH+S8L1bTOXl4pqjd3Fi/Ywo1ZRecNt2U+GEpcmfNux7a/FLq5o7fgAAAAAAAAAAAAAAAAAAAAAH6KYLw2xgzVEPNchQaPJ5WVjm4fu8lMDDfMrHu0+6EK8U8+tu/V75U7B0zU3s1gFg6ZqbwLe0PX3AW9oevuA8N+p5G9lY+zoAsHTNTeBYOmam8C3tD19wFvaHr7gPDfqeRvZWPs6ALB0zU3gWDpmpvAt7Q9fcBb2h6+4Dw36nkb2Vj7OgCwdM1N4Fg6ZqbwLe0PX3AW9oevuA8N+p5G9lY+zoAsHTNTeBYOmam8C3tD19wFvaHr7gPDfqeRvZWPs6ALB0zU3gWDpmpvAt7Q9fcBb2h6+4Dw36nkb2Vj7OgCwdM1N4Fg6ZqbwLe0PX3AW9oevuA8N+p5G9lY+zoAsHTNTeBYOmam8C3tD19wFvaHr7gPDfqeRvZWPs6ALB0zU3gWDpmpvAt7Q9fcBb2h6+4C3tD19wPzanOci60qGdWlKcNOjD5UegAAAAAAAAAAAAAAAAAAAAHZvFt8c2D/Wn/cxty3Ac4bv+bwy0fKNzbvH5fFD3ik2ioyIAK9Q5xd2grgAyIAK9Q5xd2grgAyIAK9Q5xd2grgAyIAK9Q5xd2g8X8aDxy1x+DRfcwo1ZRecNt2U+GEpcmfNux7a/FLqho7fgAAAAAAAAAAAAAAAAAAAAAH6K8Hn0boX5KjfyJgYb5lY92n3QhXinn1t36vfLUs1gAMiACvUOcXdoK4AMiACvUOcXdoK4AMiACvUOcXdoK4AMiACvUOcXdoK4AMiACvUOcXdoK4AMiACvUOcXdoK4AMiACvUOcXdoK4AMiACvUOcXdoK4AMiAAD88ZznIutKhnVpSnDTow+VHoAAAAAAAAAAAAAAAAAAAAB2dxbPHNUH3z/uY25ZP+cN3/N4ZaPlG5t3j8vih7wSbRUZEAFeoc4u7QVwAZEAFeoc4u7QVwAZEAFeoc4u7QVwAZEAFeoc4u7QeL+NB45a4/BovuYUasovOG27KfDCUuTPm3Y9tfil1Q0dvwAAAAAAAAAAAAAAAAAAAAAD9FeDz6N0L8lRv5EwMN8yse7T7oQrxTz6279XvlqWawAGRABXqHOLu0FcAGRABXqHOLu0FcAGRABXqHOLu0FcAGRABXqHOLu0FcAGRABXqHOLu0FcAGRABXqHOLu0FcAGRABXqHOLu0FcAGRABXqHOLu0FcAGRAAB+eU7zsfWlQzq0pThp0YfCj0AAAAAAAAAAAAAAAAAAAAA7E4APGvUv/wA3uo25ZP8AnDYfm8MtGyj827x+XxQ9mJNoqtcACRX2b3tgJAANcACRX2b3tgJAANcACRX2b3tgJAANcACRX2b3tgPEfGJ8a9afhUf3UKNWUXnDbdlPhhKXJnzbse2vxS60aO34AAAAAAAAAAAAAAAAAAAAAB+iVD+i+D/5CZ93AmBhvmVj3afdCFeKefW3fq98vlmsABrgASK+ze9sBIABrgASK+ze9sBIABrgASK+ze9sBIABrgASK+ze9sBIABrgASK+ze9sBIABrgASK+ze9sBIABrgASK+ze9sBIABrgASK+ze9sBIABrgAAfmJO87H1pUM6tKU4adGHwo9AAAAAAAAAAAAAAAAAAAAAOxOL/416l/+b3Ubc8n/OGw/N4ZaNlH5t3j8vih7MSaRVa4AEivs3vbASAAa4AEivs3vbASAAa4AEivs3vbASAAa4AEivs3vbAeI+MT4160/Co/uoUasovOG27KfDCUuTPm3Y9tfil1o0dvwAAAAAAAAAAAAAAAAAAAAAD9EqH9F8H/AMhM+7gTAw3zKx7tPuhCvFPPrbv1e+XyzWAA1wAJFfZve2AkAA1wAJFfZve2AkAA1wAJFfZve2AkAA1wAJFfZve2AkAA1wAJFfZve2AkAA1wAJFfZve2AkAA1wAJFfZve2AkAA1wAJFfZve2AkAA1wAAPzEnecj60qGdWlKcNOjD4UegAAAAAAAAAAAAAAAAAAAAHZXF0o/yrheqSZy8jK5fu4sf7GNueT7nDYfm8MtGyj827x+XxQ9u2DpmpvSaRVLe0PX3AW9oevuA8N+p5G9lY+zoAsHTNTeBYOmam8C3tD19wFvaHr7gPDfqeRvZWPs6ALB0zU3gWDpmpvAt7Q9fcBb2h6+4Dw36nkb2Vj7OgCwdM1N4Fg6ZqbwLe0PX3AW9oevuA8N+p5G9lY+zoB4p4ytH+S8L1bTOXl4pqjd3Fi/Ywo1ZRecNt2U+GEpcmfNux7a/FLq5o7fgAAAAAAAAAAAAAAAAAAAAAH6KYLw2xgzVEPNchQaPJ5WVjm4fu8lMDDfMrHu0+6EK8U8+tu/V75U7B0zU3s1gFg6ZqbwLe0PX3AW9oevuA8N+p5G9lY+zoAsHTNTeBYOmam8C3tD19wFvaHr7gPDfqeRvZWPs6ALB0zU3gWDpmpvAt7Q9fcBb2h6+4Dw36nkb2Vj7OgCwdM1N4Fg6ZqbwLe0PX3AW9oevuA8N+p5G9lY+zoAsHTNTeBYOmam8C3tD19wFvaHr7gPDfqeRvZWPs6ALB0zU3gWDpmpvAt7Q9fcBb2h6+4Dw36nkb2Vj7OgCwdM1N4Fg6ZqbwLe0PX3AW9oevuA8N+p5G9lY+zoAsHTNTeBYOmam8C3tD19wFvaHr7gPDfqeRvZWPs6ALB0zU3gWDpmpvAt7Q9fcBb2h6+4C3tD19wPzanOci60qGdWlKcNOjD5UegAAAAAAAAAAAAAAAAAAAAHaPFokx8MtRfdSPcxt0yfc4bD83hlouUjm3ePy+KHu1JlFZkQAV6hzi7tBXABkQAV6hzi7tBXABkQAV6hzi7tBXABkQAV6hzi7tB4v40Hjlrj8Gi+5hRqyi84bbsp8MJS5M+bdj21+KXVDR2/AAAAAAAAAAAAAAAAAAAAAAP0V4PPo3QvyVG/kTAw3zKx7tPuhCvFPPrbv1e+WpZrAAZEAFeoc4u7QVwAZEAFeoc4u7QVwAZEAFeoc4u7QVwAZEAFeoc4u7QVwAZEAFeoc4u7QVwAZEAFeoc4u7QVwAZEAFeoc4u7QVwAZEAFeoc4u7QVwAZEAAH54znORdaVDOrSlOGnRh8qPQAAAAAAAAAAAAAAAAAAAADtLiz+OWo/upHuY26ZPecNh+bwy0TKTzbt/y+KHuxJlFdkQAV6hzi7tBXABkQAV6hzi7tBXABkQAV6hzi7tBXABkQAV6hzi7tB4v40Hjlrj8Gi+5hRqyi84bbsp8MJS5M+bdj21+KXVDR2/AAAAAAAAAAAAAAAAAAAAAAP0V4PPo3QvyVG/kTAw3zKx7tPuhCvFPPrbv1e+WpZrAAZEAFeoc4u7QVwAZEAFeoc4u7QVwAZEAFeoc4u7QVwAZEAFeoc4u7QVwAZEAFeoc4u7QVwAZEAFeoc4u7QVwAZEAFeoc4u7QVwAZEAFeoc4u7QVwAZEAAH55TvOx9aVDOrSlOGnRh8KPQAAAAAAAAAAAAAAAAAAAADsfi+eNep+rP8Auom65PecNh+bwy0TKTzbt/y+KHslJhFdrgASK+ze9sBIABrgASK+ze9sBIABrgASK+ze9sBIABrgASK+ze9sB4j4xPjXrT8Kj+6hRqyi84bbsp8MJS5M+bdj21+KXWjR2/AAAAAAAAAAAAAAAAAAAAAAP0Sof0Xwf/ITPu4EwMN8yse7T7oQrxTz6279Xvl8s1gANcACRX2b3tgJAANcACRX2b3tgJAANcACRX2b3tgJAANcACRX2b3tgJAANcACRX2b3tgJAANcACRX2b3tgJAANcACRX2b3tgJAANcACRX2b3tgJAANcAAD8xJ3nY+tKhnVpSnDTow+FHoAAAAAAAAAAAAAAAAAAAAB2Pxe/GvVHVn/dRN1ye84bH83hlomUnm3b/l8UPZKTCK7XAAkV9m97YCQADXAAkV9m97YCQADXAAkV9m97YCQADXAAkV9m97YDxHxifGvWn4VH91CjVlF5w23ZT4YSlyZ827Htr8UutGjt+AAAAAAAAAAAAAAAAAAAAAAfolQ/ovg/8AkJn3cCYGG+ZWPdp90IV4p59bd+r3y+WawAGuABIr7N72wEgAGuABIr7N72wEgAGuABIr7N72wEgAGuABIr7N72wEgAGuABIr7N72wEgAGuABIr7N72wEgAGuABIr7N72wEgAGuABIr7N72wEgAGuAAB+Yk7zkfWlQzq0pThp0YfCj0AAAAAAAAAAAAAAAAAAAAA7O4t9H+VcL1TzOXkY4KR3cWP9jE3XJ5zhsfzeGWh5Subdv20+KHtmwdM1N6TCLBb2h6+4C3tD19wHhv1PI3srH2dAFg6ZqbwLB0zU3gW9oevuAt7Q9fcB4b9TyN7Kx9nQBYOmam8CwdM1N4FvaHr7gLe0PX3AeG/U8jeysfZ0AWDpmpvAsHTNTeBb2h6+4C3tD19wHhv1PI3srH2dAPFPGVo/yXheraZy8vFNUbu4sX7GFGrKLzhtuynwwlLkz5t2PbX4pdXNHb8AAAAAAAAAAAAAAAAAAAAAA/RTBeG2MGaoh5rkKDR5PKysc3D93kpgYb5lY92n3QhXinn1t36vfKnYOmam9msAsHTNTeBb2h6+4C3tD19wHhv1PI3srH2dAFg6ZqbwLB0zU3gW9oevuAt7Q9fcB4b9TyN7Kx9nQBYOmam8CwdM1N4FvaHr7gLe0PX3AeG/U8jeysfZ0AWDpmpvAsHTNTeBb2h6+4C3tD19wHhv1PI3srH2dAFg6ZqbwLB0zU3gW9oevuAt7Q9fcB4b9TyN7Kx9nQBYOmam8CwdM1N4FvaHr7gLe0PX3AeG/U8jeysfZ0AWDpmpvAsHTNTeBb2h6+4C3tD19wHhv1PI3srH2dAFg6ZqbwLB0zU3gW9oevuAt7Q9fcB4b9TyN7Kx9nQBYOmam8CwdM1N4FvaHr7gLe0PX3AW9oevuB+bU5zkXWlQzq0pThp0YfKj0AAAAAAAAAAAAAAAAAAAAA7U4sfjlqXqUn3MbdsnnOGx7KvDLQ8pXNu37afFD3UkuiwyIAK9Q5xd2grgAyIAK9Q5xd2grgAyIAK9Q5xd2grgAyIAK9Q5xd2g8X8aDxy1x+DRfcwo1ZRecNt2U+GEpcmfNux7a/FLqho7fgAAAAAAAAAAAAAAAAAAAAAH6K8Hn0boX5KjfyJgYb5lY92n3QhXinn1t36vfLUs1gAMiACvUOcXdoK4AMiACvUOcXdoK4AMiACvUOcXdoK4AMiACvUOcXdoK4AMiACvUOcXdoK4AMiACvUOcXdoK4AMiACvUOcXdoK4AMiACvUOcXdoK4AMiAAD88ZznIutKhnVpSnDTow+VHoAAAAAAAAAAAAAAAAAAAAB2rxYvHLU34dJ9zE3bJ3zhseyrwy0LKXzbt+2nxQ90pLossiACvUOcXdoK4AMiACvUOcXdoK4AMiACvUOcXdoK4AMiACvUOcXdoPF/Gg8ctcfg0X3MKNWUXnDbdlPhhKXJnzbse2vxS6oaO34AAAAAAAAAAAAAAAAAAAAAB+ivB59G6F+So38iYGG+ZWPdp90IV4p59bd+r3y1LNYADIgAr1DnF3aCuADIgAr1DnF3aCuADIgAr1DnF3aCuADIgAr1DnF3aCuADIgAr1DnF3aCuADIgAr1DnF3aCuADIgAr1DnF3aCuADIgAr1DnF3aCuADIgAA/PKd52PrSoZ1aUpw06MPhR6AAAAAAAAAAAAAAAAAAAAAdk8XjxrVV+HP8Auom75O+cNj2VeGWhZS+bdv20+KHsdJZFlrgASK+ze9sBIABrgASK+ze9sBIABrgASK+ze9sBIABrgASK+ze9sB4j4xPjXrT8Kj+6hRqyi84bbsp8MJS5M+bdj21+KXWjR2/AAAAAAAAAAAAAAAAAAAAAAP0Sof0Xwf8AyEz7uBMDDfMrHu0+6EK8U8+tu/V75fLNYADXAAkV9m97YCQADXAAkV9m97YCQADXAAkV9m97YCQADXAAkV9m97YCQADXAAkV9m97YCQADXAAkV9m97YCQADXAAkV9m97YCQADXAAkV9m97YCQADXAAA/MSd52PrSoZ1aUpw06MPhR6AAAAAAAAAAAAAAAAAAAAAdlcXfxrVV+HSPdRN3yd84bHsq8MtBymc27btp8UPYySyLTXAAkV9m97YCQADXAAkV9m97YCQADXAAkV9m97YCQADXAAkV9m97YDxHxifGvWn4VH91CjVlF5w23ZT4YSlyZ827Htr8UutGjt+AAAAAAAAAAAAAAAAAAAAAAfolQ/ovg/8AkJn3cCYGG+ZWPdp90IV4p59bd+r3y+WawAGuABIr7N72wEgAGuABIr7N72wEgAGuABIr7N72wEgAGuABIr7N72wEgAGuABIr7N72wEgAGuABIr7N72wEgAGuABIr7N72wEgAGuABIr7N72wEgAGuAAB+Yk7zkfWlQzq0pThp0YfCj0AAAAAAAAAAAAAAAAAAAAA7R4tdH+VcL1UzOXkY5qk93Fj/AGUTeMnXOGx7KvDLQcpnNu27afFD2tYOmam9JVFot7Q9fcBb2h6+4Dw36nkb2Vj7OgCwdM1N4Fg6ZqbwLe0PX3AW9oevuA8N+p5G9lY+zoAsHTNTeBYOmam8C3tD19wFvaHr7gPDfqeRvZWPs6ALB0zU3gWDpmpvAt7Q9fcBb2h6+4Dw36nkb2Vj7OgHinjK0f5LwvVtM5eXimqN3cWL9jCjVlF5w23ZT4YSlyZ827Htr8Uurmjt+AAAAAAAAAAAAAAAAAAAAAAfopgvDbGDNUQ81yFBo8nlZWObh+7yUwMN8yse7T7oQrxTz6279XvlTsHTNTezWAWDpmpvAt7Q9fcBb2h6+4Dw36nkb2Vj7OgCwdM1N4Fg6ZqbwLe0PX3AW9oevuA8N+p5G9lY+zoAsHTNTeBYOmam8C3tD19wFvaHr7gPDfqeRvZWPs6ALB0zU3gWDpmpvAt7Q9fcBb2h6+4Dw36nkb2Vj7OgCwdM1N4Fg6ZqbwLe0PX3AW9oevuA8N+p5G9lY+zoAsHTNTeBYOmam8C3tD19wFvaHr7gPDfqeRvZWPs6ALB0zU3gWDpmpvAt7Q9fcBb2h6+4Dw36nkb2Vj7OgCwdM1N4Fg6ZqbwLe0PX3AW9oevuA8N+p5G9lY+zoAsHTNTeBYOmam8C3tD19wFvaHr7gLe0PX3A/Nqc5yLrSoZ1aUpw06MPlR6AAAAAAAAAAAAAAAAAAAAAdscV7xy1R+DSfcxN4ydc4bHsq8MtAym827btp8UPcySqLbIgAr1DnF3aCuADIgAr1DnF3aCuADIgAr1DnF3aCuADIgAr1DnF3aDxfxoPHLXH4NF9zCjVlF5w23ZT4YSlyZ827Htr8UuqGjt+AAAAAAAAAAAAAAAAAAAAAAforwefRuhfkqN/ImBhvmVj3afdCFeKefW3fq98tSzWAAyIAK9Q5xd2grgAyIAK9Q5xd2grgAyIAK9Q5xd2grgAyIAK9Q5xd2grgAyIAK9Q5xd2grgAyIAK9Q5xd2grgAyIAK9Q5xd2grgAyIAK9Q5xd2grgAyIAAPzxnOci60qGdWlKcNOjD5UegAAAAAAAAAAAAAAAAAAAAHbHFe8ctU/g0n3MTecnPOCy7KvDLQMpvNu27aPFD3Mkoi2yIAK9Q5xd2grgAyIAK9Q5xd2grgAyIAK9Q5xd2grgAyIAK9Q5xd2g8X8aDxy1x+DRfcwo1ZRecNt2U+GEpcmfNux7a/FLqho7fgAAAAAAAAAAAAAAAAAAAAAH6K8Hn0boX5KjfyJgYb5lY92n3QhXinn1t36vfLUs1gAMiACvUOcXdoK4AMiACvUOcXdoK4AMiACvUOcXdoK4AMiACvUOcXdoK4AMiACvUOcXdoK4AMiACvUOcXdoK4AMiACvUOcXdoK4AMiACvUOcXdoK4AMiAAD88p3nY+tKhnVpSnDTow+FHoAAAAAAAAAAAAAAAAAAAAB2ZxdPGtVv4NI91E3nJzzhsuyrwy0DKbzbtu2jxQ9iJKIttcACRX2b3tgJAANcACRX2b3tgJAANcACRX2b3tgJAANcACRX2b3tgPEfGJ8a9afhUf3UKNWUXnDbdlPhhKXJnzbse2vxS60aO34AAAAAAAAAAAAAAAAAAAAAB+iVD+i+D/AOQmfdwJgYb5lY92n3QhXinn1t36vfL5ZrAAa4AEivs3vbASAAa4AEivs3vbASAAa4AEivs3vbASAAa4AEivs3vbASAAa4AEivs3vbASAAa4AEivs3vbASAAa4AEivs3vbASAAa4AEivs3vbASAAa4AAH5iTvOx9aVDOrSlOGnRh8KPQAAAAAAAAAAAAAAAAAAAADs3i5+NarfwaR7qJvOTnnBZdlXhlz/Kdzbtu2jxQ9hpKIuNcACRX2b3tgJAANcACRX2b3tgJAANcACRX2b3tgJAANcACRX2b3tgPEfGJ8a9afhUf3UKNWUXnDbdlPhhKXJnzbse2vxS60aO34AAAAAAAAAAAAAAAAAAAAAB+iVD+i+D/AOQmfdwJgYb5lY92n3QhXinn1t36vfL5ZrAAa4AEivs3vbASAAa4AEivs3vbASAAa4AEivs3vbASAAa4AEivs3vbASAAa4AEivs3vbASAAa4AEivs3vbASAAa4AEivs3vbASAAa4AEivs3vbASAAa4AAH5iTvOR9aVDOrSlOGnRh8KPQAAAAAAAAAAAAAAAAAAAADtTiz0b5Xwu1ZM8pkY5iky48WP8AZRN6ycc4LLsq8MufZTubdr20eKHtOwdM1N6SaLpb2h6+4C3tD19wHhv1PI3srH2dAFg6ZqbwLB0zU3gW9oevuAt7Q9fcB4b9TyN7Kx9nQBYOmam8CwdM1N4FvaHr7gLe0PX3AeG/U8jeysfZ0AWDpmpvAsHTNTeBb2h6+4C3tD19wHhv1PI3srH2dAPFPGVo/wAl4Xq2mcvLxTVG7uLF+xhRqyi84bbsp8MJS5M+bdj21+KXVzR2/AAAAAAAAAAAAAAAAAAAAAAP0UwXhtjBmqIea5Cg0eTysrHNw/d5KYGG+ZWPdp90IV4p59bd+r3yp2DpmpvZrALB0zU3gW9oevuAt7Q9fcB4b9TyN7Kx9nQBYOmam8CwdM1N4FvaHr7gLe0PX3AeG/U8jeysfZ0AWDpmpvAsHTNTeBb2h6+4C3tD19wHhv1PI3srH2dAFg6ZqbwLB0zU3gW9oevuAt7Q9fcB4b9TyN7Kx9nQBYOmam8CwdM1N4FvaHr7gLe0PX3AeG/U8jeysfZ0AWDpmpvAsHTNTeBb2h6+4C3tD19wHhv1PI3srH2dAFg6ZqbwLB0zU3gW9oevuAt7Q9fcB4b9TyN7Kx9nQBYOmam8CwdM1N4FvaHr7gLe0PX3AeG/U8jeysfZ0AWDpmpvAsHTNTeBb2h6+4C3tD19wFvaHr7gfm1Oc5F1pUM6tKU4adGHyo9AAAAAAAAAAAAAAAAAAAAAO2+K145Kr/L0r3UTesnHOCy7KvDLn2U/m3a96jxQ9xpJousiACvUOcXdoK4AMiACvUOcXdoK4AMiACvUOcXdoK4AMiACvUOcXdoPF/Gg8ctcfg0X3MKNWUXnDbdlPhhKXJnzbse2vxS6oaO34AAAAAAAAAAAAAAAAAAAAAB+ivB59G6F+So38iYGG+ZWPdp90IV4p59bd+r3y1LNYADIgAr1DnF3aCuADIgAr1DnF3aCuADIgAr1DnF3aCuADIgAr1DnF3aCuADIgAr1DnF3aCuADIgAr1DnF3aCuADIgAr1DnF3aCuADIgAr1DnF3aCuADIgAA/PGc5yLrSoZ1aUpw06MPlR6AAAAAAAAAAAAAAAAAAAAAdm8W6spqrOGOoY52KSSGkRT1Gkll6Y5qKST/nE3HcDeIu+6Cwmr078baZaRlFu9V53OXiKf6d6rZVEy94pOIpsiACvUOcXdoK4AMiACvUOcXdoK4AMiACvUOcXdoK4AMiACvUOcXdoPD3GGrSbrbhgwinpqKSKCZnoKNJLJ0zc3DDL/zJKi/u6vMXnH7xVTyRMRsiI96WOT+7Tddzt2pq5Ziav1TMx+zrlqTcgAAAAAAAAAAAAAAAAAAAAAH6HcF9Km6dgjVtLmpZJYJ2r6LFJLJ+Gl3g1rTb4dYWlPJNFPuhDDHLGq74neLKrliurxS2D6T5YDIgAr1DnF3aCuADIgAr1DnF3aCuADIgAr1DnF3aCuADIgAr1DnF3aCuADIgAr1DnF3aCuADIgAr1DnF3aCuADIgAr1DnF3aCuADIgAr1DnF3aCuADIgAA/PKd52PrSoZ1aUpw06MPhR6AAAAAAAAAAAAAAAAAAAAAcuqqypNT1nRK2ocWTP0Oegn5uX/wAoZZJZP4L90vNdzt6LxZ6VMxMdsTvsa+XWzv13ru1ro1xMT2TG894YLYRUHCvB+g4QVdHJFM02ZhnMUkv6sX96GX0yS45P3JbYViNli1zs75Yz92uN/sn0x7J4kNsXwy2we+2lxt4+9RO92x6J9scbsN9B84BIr7N72wEgAGuABIr7N72wEgAGuABIr7N72wEgAGuABi+FTCqhYF4Lz+EVOikkhos1HLNwSy85OS4pIIJPvlxPlY3itlgtwtL7a/0xxeufRHtl9jAcItcdxCyuNjGlPHOqPTPsh+flOplIrGm0isKVHLHPUmdinpyKX64opccsvbKiZb21d5tara0nfqqmZntnjTFu9hRdrKmxs43qaYiI7I4n8FpeAAAAAAAAAAAAAAAAAAAAAAeveLnhxM4R8H1Fwcn56SWnYPxxTEsMsvdlmIpcc3F90ndhuyJEZNcYpv8AhUXOqfv2PF+WeOJ+HsRoyo4JVh2LzfaY+5bcf5o4pj3T7XabormYDXAAkV9m97YCQADXAAkV9m97YCQADXAAkV9m97YCQADXAAkV9m97YCQADXAAkV9m97YCQADXAAkV9m97YCQADXAAkV9m97YCQADXAAkV9m97YCQADXAAA/MSd52PrSoZ1aUpw06MPhR6AAAAAAAAAAAAAAAAAAAAAAdr8B3DBLgDToqkryOOOo6ZHlSyyd2WjTkvcy5JPJl+uT97oO4bdh/8C14Lep37Cuf0zr7Ne1zfd9uKjdFYxe7nG9eKI/VGrtj0T7Ht+g0+hVpQ5msKupc1SaNSIJI5qdmo5IoI4Ze9LJLJ30h7G2s7xZxa2VUVUzxxMccSjTb2FrdrSqxtqZpqjimJ4phyF1aSK+ze9sBIABrgASK+ze9sBIABrgASK+ze9sBIABrgcGuq7qnB2rZ+uK7rCZoVDo8OVOT07FkwySbZfRJ3ZWNe75YXCxqvF5qiminlmWVc7leMQt6bvdaJqrq5Ih4j4d+GikcKdcwUSrYZyYqGropfks3F3Ip6LvSzscnTL9Un1SemWVHHdnutr3R3iLOx4rCjRjXPSn4R6ISc3DbjaNzF2m1t96bevSnVHRj4z6ZdVtJb6AAAAAAAAAAAAAAAAAAAAAAA0eAWG1aYAYR0ev6slysj9CfmZZcUM9NS9+GXZL9Uskj7OAY3eNz99pvlh6OKY9Ex6Y+WqXwt0WA3fdHcKrleOLf44n00z6Jj464ez8DMNqgw6qebrioaXDOQyySSTszLL/aTMf1wxyfVL/xKk7guN3PHbtF5ulW/Hpj0xOqY/wDb6KWOYDfdz96m63ynen0T6Ko1xP8A7e9K8+u+M1wAJFfZve2AkAA1wAJFfZve2AkAA1wAJFfZve2AkAA1wAJFfZve2AkAA1wAJFfZve2AkAA1wAJFfZve2AkAA1wAJFfZve2AkAA1wAJFfZve2AkAA1wAAPzEnecj60qGdWlKcNOjD4UegAAAAAAAAAAAAAAAAAAAAAAG44POGPDng1ncioay5SgxRZU5QaTJLHMRdMsknfhl9MMsjZMC3V4lufq3rrXv0emmeOn+PY1fdBuPwvdJTv3ujer9FdPFV/Pt33fNQ8crB6fmoYMI8E6ZRJ3F+lHRZ2Gdgll+6XFLJ/y6hccq9ytKYi+2NVM/271UfvvS5NiGR+/WdUzcbemuNVW/TP7b8e5YpHGl4Kawkhln6TWkxkY+5JQ5Y8rH++TofYjKbgOuv9P8vizkq3Q9Gj9X8P4S8ZPgjk//ALStpf8A8fL/AFHlNwHXX+n+TyVbodVH6v4fMvGV4JfONby//j//AHU8p2Ba6/0/yr5Kd0Oqj9X8ObLxuuDL6qLWkv8A8G958p2Bf3/p/lXyU7oP7P1fw/z53fBn/g619hJ8Tyn4H/f+n+VfJRj/APZ+r+HGpXGr4Lqfk8rBXE1kY8WTRIYsrHek6FPKhgeqv9MfN68k+P67P9U/JxpeM5wVfa15L/8AYw/9inlQwTVX+mPmeSbHtdn+qfpf5LxneCyTvRV7L/8AYwf9inlRwTVX+mPqV8k2PdKz/VP0ud88Dg4801z7KD+pTypYL0bT9MfU9eSXHelZ/qn6X+S8cHg6+qp649nB/Up5UsF6Np+mPqV8kmOdOz/VP0uLS+Nlwb07J5Sr67msjH3qPBFlY78nQp5U8G6FeyPqV8kmOdOz2z9LjS8aLg0+qj19/tJv/sU8qeD9C02R9SvkjxvrLPbP0viLjScHEkmOGhV9FL0fJpuT/wD0eZyqYRHJZ17I+p6jJFjUzx2lntq+lOr/AI50MszFN4L4FywzssmKGdp1IxySenIgk7v/AOz49+ysxmzFxu/Hrqn4R8328PyOznRVf7zxaqI+M/J0ThxwmYZ8IlLkpOFFcTk/BBLjmqNB+hMTXVgk7n75ccvpcxxndDiOPWmffbSZiOSOSmOyPjyuq4Jubw3c/Z5lxs4iZ5ap46p7Z+HIyz4r7wAAAAAAAAAAAAAAAAAAAAAAAACpg9hNX2ClYQ1pg/Wc/QqRD3Mqbi7kUnRFJ3opPRKzsOxO94VbRb3O0mir1entjkmO187EsKueMWE3e+2cV0+v0euJ5Ynsd04N8a2sqPNwTGFWD03S5ZJMUs/RJzk4pfTLBLjk7JZHT8Oyr29nTFN/sIq9dM707J349zlGJ5H7va1TXh1vNHqqjfjbG9P7S30HHKwJlhkljwWriGX65JIpuXa+9GVbC97jsa/8fm16rJBi0TxW1n/l8n+/PJwH/wAsVz2zf9SvlWwrqrT/AB+ankgxfrrPbV9Lj0zjc4B07I5Soa7msjH3oJqLHjxf+cnQr5VsK6q02U/M8kGL9dZ7avpcb51PB/5qr72M1/2HlWwrqrTZT9R5IMX66z21fSfOp4P/ADVX3sZr/sPKthXVWmyn6jyQYv11ntq+lR+eTgP/AJYrntm/6lPKthXVWn+PzPJBi/XWe2r6T55OA/8Aliue2b/qPKthXVWn+PzPJBi/XWe2r6XHpnG5wDp2RylQ13NZGPvQTUWPHi/85OhXyrYV1Vpsp+Z5IMX66z21fS43zqeD/wA1V97Ga/7DyrYV1Vpsp+o8kGL9dZ7avpPnU8H/AJqr72M1/wBh5VsK6q02U/UeSDF+us9tX0qPzycB/wDLFc9s3/Up5VsK6q0/x+Z5IMX66z21fSfPJwH/AMsVz2zf9R5VsK6q0/x+Z5IMX66z21fS49M43OAdOyOUqGu5rIx96Caix48X/nJ0K+VbCuqtNlPzPJBi/XWe2r6XG+dTwf8AmqvvYzX/AGHlWwrqrTZT9R5IMX66z21fSfOp4P8AzVX3sZr/ALDyrYV1Vpsp+o8kGL9dZ7avpUfnk4D/AOWK57Zv+pTyrYV1Vp/j8zyQYv11ntq+k+eTgP8A5Yrntm/6jyrYV1Vp/j8zyQYv11ntq+lx6ZxucA6dkcpUNdzWRj70E1Fjx4v/ADk6FfKthXVWmyn5nkgxfrrPbV9LjfOp4P8AzVX3sZr/ALDyrYV1Vpsp+o8kGL9dZ7avpPnU8H/mqvvYzX/YeVbCuqtNlP1HkgxfrrPbV9Kj88nAf/LFc9s3/Up5VsK6q0/x+Z5IMX66z21fSfPJwH/yxXPbN/1HlWwrqrT/AB+Z5IMX66z21fS49M43OAdOyOUqGu5rIx96Caix48X/AJydCvlWwrqrTZT8zyQYv11ntq+lxvnU8H/mqvvYzX/YeVbCuqtNlP1HkgxfrrPbV9J86ng/81V97Ga/7DyrYV1Vpsp+o8kGL9dZ7avpUfnk4D/5Yrntm/6lPKthXVWn+PzPJBi/XWe2r6T55OA/+WK57Zv+o8q2FdVaf4/M8kGL9dZ7avpcemcbnAOnZHKVDXc1kY+9BNRY8eL/AM5OhXyrYV1Vpsp+Z5IMX66z21fS43zqeD/zVX3sZr/sPKthXVWmyn6jyQYv11ntq+k+dTwf+aq+9jNf9h5VsK6q02U/UeSDF+us9tX0qPzycB/8sVz2zf8AUp5VsK6q0/x+Z5IMX66z21fSfPJwH/yxXPbN/wBR5VsK6q0/x+Z5IMX66z21fS49M43OAdOyOUqGu5rIx96Caix48X/nJ0K+VbCuqtNlPzPJBi/XWe2r6XG+dTwf+aq+9jNf9h5VsK6q02U/UeSDF+us9tX0nzqeD/zVX3sZr/sPKthXVWmyn6jyQYv11ntq+lR+eTgP/liue2b/AKlPKthXVWn+PzPJBi/XWe2r6T55OA/+WK57Zv8AqPKthXVWn+PzPJBi/XWe2r6XHpfG5wDp2RylQ13NZGPvQTUWPHi/85OhXyrYV1Vpsp+Z5IMX66z21fS5NWcZjgrpsck3TKVW9Ax/3p6hZUMn/wCkcsv/AAy7vlPwS2netM+jtp3/AHTLCvOSjHrGN+zzK+yren94h2XgxX+BuGc1yuDGF9Cp8skmOKbm5f7SH74JZZIpP3yNxw7G8PxaN+5W1NfqiePZy/s0nE8CxLB6s2/WNVHrmOLbyfuv29oevufUfJLe0PX3AW9oevuB+bU5zkXWlQzq0pThp0YfKj0AAAAAAAAAAAAAAAAAAAAAAAAAAAAAAAAAAAAAAAAAAAAAAAAAAAAAAAAAAAAAAAAAAAAAAAAAAAAAAAAAAAAAAAAAAAAAAAAAAAAAAAAAAA/vQ6bTKupM3Tavpc9RqRNS5UE7NRywRwy9MksndkXLK2tLCuLSyqmmqOSYnelatrGzvFE2dtTFVM8sTG/Gx3rwW8ZGm0Wemak4QJyWkUeKWSCbrGST+0m/xJJP1pPT3/vdZ3LZSbWyqpuuMTnU8kV+mO9rj18va45utyX2VtTVe8EjNq5Zs/RPd1T6uTsekaPSJilzE3SaNPQTszOwyRwRwRY4YoZe9LJLJ35HbbO0otaItLOd+J44mPS4PaWddjXNnaRvVRxTE8sS+3t4fnjOc5F1pUM6tKU4adGHyo9AAAAAAAAAAAAAAAAAAAAAAAAAAAAAAAAAAAAAAAAAAAAAAAAAAAAAAAAAAAAAAAAAAAAAAAAAAAAAAAAAAAAAAAAAAAAAAAAAAAAAAAAAAAAAO9eLpwrT1WVhNYB17SZYqFS4sVAnI5eZnZf2ePyYvq6JfvdYyc7q6rrbRhF7q+5VoTPonV2T6NU9rjuU3cfTe7CrGbnT/wAlOnEf1U9Ltj0647Hpt3VH5+eU7zsfWlQzq0pThp0YfCj0AAAAAAAAAAAAAAAAAAAAAAAAAAAAAAAAAAAAAAAAAAAAAAAAAAAAAAAAAAAAAAAAAAAAAAAAAAAAAAAAAAAAAAAAAAAAAAAAAAAAAAAAAAAAA+5menaPPQUiYnIpucmopI4I4ZcUsMUkuOSWR6orqoqiqmd6Yea6KbSmaK434nil+hnBNhlJh5wf1RhJHFJLSJ6Z5Ok4vqnoP0Y+2WTH+9K3cziv/wBrCrG+TpTG9V3o4p+aH+6rB/8A4WL21yjRid+nuzxx+3E/POd52PrSoo1aUpgU6MPhR6AAAAAAAAAAAAAAAAAAAAAAAAAAAAAAAAAAAAAAAAAAAAAAAAAAAAAAAAAAAAAAAAAAAAAAAAAAAAAAAAAAAAAAAAAAAAAAAAAAAAAAAAAAAAAAd2cDPC9SsCME56pYZz9GWnTk9DJLL3pIoINskro25PdRXhFxm7xPFnTO2Icx3Y7krPGsQpvO9x5sRsmXS07zkfWlc6q0pdMp0YfCj0AAAAAAAAAAAAAAAAAAAAAAAAAAAAAAAAAAAAAAAAAAAAAAAAAAAAAAAAAAAAAAAAAAAAAAAAAAAAAAAAAAAAAAAAAAAAAAAAAAAAAAAAAAAAAA5lDnIoZqWSSX+8ybGZiljW0RNTiznORdaVj1aUr9OjD5UegAAAAAAAAAAAAAAAAAAAAAAAAAAAAAAAAAAAAAAAAAAAAAAAAAAAAAAAAAAAAAAAAAAAAAAAAAAAAAAAAAAAAAAAAAAAAAAAAAAAAAAAAAAAAAHKovNy9ZkWOixrbScec5yLrSrFWlK/Tow+VHoAAAAAAAAAAAAAAAAAAAAAAAAAAAAAAAAAAAAAAAAAAAAAAAAAAAAAAAAAAAAAAAAAAAAAAAAAAAAAAAAAAAAAAAAAAAAAAAAAAAAAAAAAAAAAByqLzcvWZFjosa20n8J3nY+tKsVaUr9OjD4UegAAAAAAAAAAAAAAAAAAAAAAAAAAAAAAAAAAAAAAAAAAAAAAAAAAAAAAAAAAAAAAAAAAAAAAAAAAAAAAAAAAAAAAAAAAAAAAAAAAAAAAAAAAAAAHMofNS9ZkWOixrbScad52PrSrFWlK/Tow+FHoAAAAAAAAAAAAAAAAAAAAAAAAAAAAAAAAAAAAAAAAAAAAAAAAAAAAAAAAAAAAAAAAAAAAAAAAAAAAAAAAAAAAAAAAAAAAAAAAAAAAAAAAAAAAABzKHzUvWZFjosa20nGnecj60qxVpSv06MPhR6AAAAAAAAAAAAAAAAAAAAAAAAAAAAAAAAAAAAAAAAAAAAAAAAAAAAAAAAAAAAAAAAAAAAAAAAAAAAAAAAAAAAAAAAAAAAAAAAAAAAAAAAAAAAAAcuiS4puXrMix0WNbaTjTnORdaVYq0pX6dGHyo9AAAAAAAAAAAAAAAAAAAAAAAAAAAAAAAAAAAAAAAAAAAAAAAAAAAAAAAAAAAAAAAAAAAAAAAAAAAAAAAAAAAAAAAAAAAAAAAAAAAAAAAAAAAAAAOVRebl6zIsdFjW2k485zkXWlWKtKV+nRh8qPQAAAAAAAAAAAAAAAAAAAAAAAAAAAAAAAAAAAAAAAAAAAAAAAAAAAAAAAAAAAAAAAAAAAAAAAAAAAAAAAAAAAAAAAAAAAAAAAAAAAAAAAAAAAAADlUXm5esyLHRY1tpP4TvOx9aVYq0pX6dGHwo9AAAAAAAAAAAAAAAAAAAAAAAAAAAAAAAAAAAAAAAAAAAAAAAAAAAAAAAAAAAAAAAAAAAAAAAAAAAAAAAAAAAAAAAAAAAAAAAAAAAAAAAAAAAAAAOZQ+al6zIsdFjW2k407zsfWlWKtKV+nRh8KPQAAAAAAAAAAAAAAAAAAAAAAAAAAAAAAAAAAAAAAAAAAAAAAAAAAAAAAAAAAAAAAAAAAAAAAAAAAAAAAAAAAAAAAAAAAAAAAAAAAAAAAAAAAAAADmUPmpesyLHRY1tpONO85H1pVirSlfp0YfCj0AAAAAAAAAAAAAAAAAAAAAAAAAAAAAAAAAAAAAAAAAAAAAAAAAAAAAAAAAAAAAAAAAAAAAAAAAAAAAAAAAAAAAAAAAAAAAAAAAAAAAAAAAAAAAA5dElxTcvWZFjosa20nGnOci60qxVpSv06MPlR6AAAAAAAAAAAAAAAAAAAAAAAAAAAAAAAAAAAAAAAAAAAAAAAAAAAAAAAAAAAAAAAAAAAAAAAAAAAAAAAAAAAAAAAAAAAAAAAAAAAAAAAAAAAAAAcqi83L1mRY6LGttJx5znIutKsVaUr9OjD5UegAAAAAAAAAAAAAAAAAAAAAAAAAAAAAAAAAAAAAAAAAAAAAAAAAAAAAAAAAAAAAAAAAAAAAAAAAAAAAAAAAAAAAAAAAAAAAAAAAAAAAAAAAAAAAHKovNy9ZkWOixrbSfwnedj60qxVpSv06MPhR6AAAAAAAAAAAAAAAAAAAAAAAAAAAAAAAAAAAAAAAAAAAAAAAAAAAAAAAAAAAAAAAAAAAAAAAAAAAAAAAAAAAAAAAAAAAAAAAAAAAAAAAAAAAAAAcyh81L1mRY6LGttJxp3nY+tKsVaUr9OjD4UegAAAAAAAAAAAAAAAAAAAAAAAAAAAAAAAAAAAAAAAAAAAAAAAAAAAAAAAAAAAAAAAAAAAAAAAAAAAAAAAAAAAAAAAAAAAAAAAAAAAAAAAAAAAAAHMofNS9ZkWOixrbScad5yPrSrFWlK/Tow+FHoAAAAAAAAAAAAAAAAAAAAAAAAAAAAAAAAAAAAAAAAAAAAAAAAAAAAAAAAAAAAAAAAAAAAAAAAAAAAAAAAAAAAAAAAAAAAAAAAAAAAAAAAAAAAABy6JLim5esyLHRY1tpONOc5F1pVirSlfp0YfKj0AAAAAAAAAAAAAAAAAAAAAAAAAAAAAAAAAAAAAAAAAAAAAAAAAAAAAAAAAAAAAAAAAAAAAAAAAAAAAAAAAAAAAAAAAAAAAAAAAAAAAAAAAAAAAA5VF5uXrMix0WNbaTjznORdaVYq0pX6dGHyo9AAAAAAAAAAAAAAAAAAAAAAAAAAAAAAAAAAAAAAAAAAAAAAAAAAAAAAAAAAAAAAAAAAAAAAAAAAAAAAAAAAAAAAAAAAAAAAAAAAAAAAAAAAAAAAOVRebl6zIsdFjW2k/hO87H1pVirSlfp0YfCj0AAAAAAAAAAAAAAAAAAAAAAAAAAAAAAAAAAAAAAAAAAAAAAAAAAAAAAAAAAAAAAAAAAAAAAAAAAAAAAAAAAAAAAAAAAAAAAAAAAAAAAAAAAAAAA5lD5qXrMix0WNbaTjTvOx9aVYq0pX6dGHwo9AAAAAAAAAAAAAAAAAAAAAAAAAAAAAAAAAAAAAAAAAAAAAAAAAAAAAAAAAAAAAAAAAAAAAAP8AYYYopcmGGWWWX6pJCImeKFJmI45cqCqK1nIcqbqylxSdMkzFLJ/BkU3S8VRv02dU+yWPVfbtTO9VaUx7YfVi1z5ppvsI/grwK89XVsn5PPD7r1tP6o+b6sCvfMtP/wBtH8DgV56urZPyOH3Xraf1R8ywK98y0/8A20fwOBXnq6tk/I4fdetp/VHzf5LUddw/rVPTpPvo8fwOBXnq6tk/I4fdetp/VHzf5Ytc+aab7CP4HArz1dWyfkcPuvW0/qj5li1z5ppvsI/gcCvPV1bJ+Rw+69bT+qPm+rAr3zLT/wDbR/A4Feerq2T8jh9162n9UfMsCvfMtP8A9tH8DgV56urZPyOH3Xraf1R83+S1HXcP61T06T76PH8DgV56urZPyOH3Xraf1R83+WLXPmmm+wj+BwK89XVsn5HD7r1tP6o+b5nKqrSahyp2raVBJ0xTMUkn8Hmq6XiiN+qiY9kvVN8u9c71NpTPthxZZJYZcUUksksn1SrExvcrIid/kf4KgAAAAAAAAAAAAAAAAAAAAAAAAOZQ+al6zIsdFjW2k407zkfWlWKtKV+nRh8KPQAAAAAAAAAAAAAAAAAAAAAAAAAAAAAAAAAAAAAAAAAAAAAAAAAAAAAAAAAAAAAAAAAAADWYD8GOF3CBSMioqvlko0MWKcpc9jhmYL31y+iTHK2DA9zGI7oK966Ufd9NU8VMe309kb7W8f3V4Zubo375X96eSmOOqfZ6I9c70PQ2BfFnwFqSCCkYVSUmvaVJillg5SWZo8kvohh/Sl/fL+52HCMmGGXOIrv1U2tWrkp2Rxz7Z9jimM5V8VvszRcKYsaNelVtnij2R7XbdS4F4I0eakmajwaq2rIZj7GjQY48fTLikll7ze7phFwuMZt2saaeymHPr5jOI4hVnXq3rr7ap93IsyYPwySYpKVJJ/8AHvfQ3oh82ZmeUsCH/F6m9VQt2H/Ba24C3Yf8FrbgMUld/VJM8jeysfZ0AWBD/i9TeBYEP+L1N4Fuw/4LW3AW7D/gtbcBikrv6pJnkb2Vj7OgCwIf8Xqbwf5Lg9BFJiipUksnpm96kxE8qsTMciFXeD+BOEc3FNV5gTVlMki78U5Mw5X7opIccna+ZfMEw6/xvXmwpq7Yjf28r6tyx3E8OnOut4rp7Kp3tnI6gw14sWCFbQx0nA2epFS0mXHLJMzs5LPUeWXo7smVD2y/c0HF8l1wvMTXh1c2dWqeOn5xtnsdFwXKziF1mKMSoi1p1x92r5TsjteesM+D3CvAOl/JsIasjmpuKXFNUiD9KZnerFslxS+hx7Gtz2IYDa/Z32jeieSY46Z7J+HK7Vge6TDd0Nl9pcbTfmOWmeKqO2PjyM2+K+8AAAAAAAAAAAAAAAAAAAAAAA5dElxTcvWZFjosa20nGnOci60qxVpSv06MPlR6AAAAAAAAAAAAAAAAAAAAAAAAAAAAAAAAAAAAAAAAAAAAAAAAAAAAAAAAAAAAAAAAAAAd6cA3F4n8OuSwrwvm5yj1DDFjmJjuwx02WT0/VN+nvy/V0ul7i9wtWM71+v8AExY+iPTX8qfX6fQ5Zu6ygUYHv4fh0xVb+meWKPnV6vR6dT0pQKvoNVUOaq+raJNUajTEMkE3NTUMkMMMnokkd8u93srpZRY2FMU0xyRHFEI7Xm8218tare3qmqurjmZ45lyF5YV6hzi7tBXABkQAV6hzi7tBXABkQAV6hzi7tBXABkQAciCoqowkqynVPXtXzNNodIkhhnJqdhxyS9/u+iXolk7sjFvlyu+IWNV3vNEVUTyxLKuV+vGHW9N5utc0V08kw8k8OnAHTuDWkRV9UPK0zB2fjxSRS92OiRS96CPpk6Iv3S93vx73ZbibXc/Vwq679VhO2n1T6tU7Uk9xG7uy3R0cEve9TeIj2VRrj1649scXJ060B0YAAAAAAAAAAAAAAAAAAAAAByqLzcvWZFjosa20nHnOci60qxVpSv06MPlR6AAAAAAAAAAAAAAAAAAAAAAAAAAAAAAAAAAAAAAAAAAAAAAAAAAAAAAAAAAAAAAAAAAdpcAHBNFwm4VcrWU3FJUdVywztNi73Ky/3ZqSX04u70SSS9MjddxG5id0N+zraP8Ahs+Or16qfb6fU0Td5urjc1cM2xn/AJ7Tip9Wur2ej1vdFHo8xRKPN0WizME1MzMEkE3NwSYoYYZJMUkkkn1SJK2dnTZUxRRG9EcUQi1aWldrXNpaTvzPHMz6ZZV7eAFeoc4u7QVwAZEAFeoc4u7QVwAZEAFeoc4u7QVwAZEAFeoc4u7Qc6sqtoNcUCkVXWdFm6TRKVNyzU9NTkmOGOGWTuySrN4u9lerKqwtqc6mqN6Yn0wvXa8Wt0tqbewqmmumd+Jj0S8E8NPBfSeC7DCdqyDLnKspcks/V89F/em8fdgll8qGXuS/ul+tGDdbudr3OX+bGOOzq46J9Wrtjk/dLDcbumo3T4dFvPFa08VcevX2Tyxs9DANXbaAAAAAAAAAAAAAAAAAAAAA5VF5uXrMix0WNbaT+E7zsfWlWKtKV+nRh8KPQAAAAAAAAAAAAAAAAAAAAAAAAAAAAAAAAAAAAAAAAAAAAAAAAAAAAAAAAAAAAAAAAD6ghijikgghliiilxSSSd+WVWImqd6FJmKY355Ht/gowMmsBsCaBVHJyQ0qcgkpFMi+uKeikxyyfu7kP7kqNyeC04Fhdndt778xnVd6eXZyexEXdhjlW6DFrW9b/wByJzae7HJt5fa17ZGrtcACRX2b3tgJAANcACRX2b3tgJAANcACRX2b3tgJAANcACRX2b3tgJAOveHPAmDDLASlyzM1lU+rJJaZRZZJO7Lkyfpwfvhx/vkkabu6wSMZwmvNj/ks/vU+zlj2x++83jJ/j04HjNGfP/Hafcq9vJPsn9t94xRkSrAAAAAAAAAAAAAAAAAAAAAcyh81L1mRY6LGttJxp3nY+tKsVaUr9OjD4UegAAAAAAAAAAAAAAAAAAAAAAAAAAAAAAAAAAAAAAAAAAAAAAAAAAAAAAAAAAAAAAAAG04HKhgwj4SakoE7N5czBSPlM7JL3pYZuSWP+Mkkn72z7jbhGJY3d7GqN+InOnsp4/g1TdviM4XgN4tqZ3qppzY7auL4vbiUyI4DXAAkV9m97YCQADXAAkV9m97YCQADXAAkV9m97YCQADXAAkV9m97YCQD/ACKGGOGWCKSSWGKTFLJL9cikxExvSrEzE78PCvCVg9Jgph9X2D8EOTN0OnTsM1J6uWXKg1ZZES90Fx/+bilvdY5Kap3uzlj9kx9zmIf/AFMJu97nlqpjf7eSf3hmnx32wAAAAAAAAAAAAAAAAAAAHMofNS9ZkWOixrbScad5yPrSrFWlK/Tow+FHoAAAAAAAAAAAAAAAAAAAAAAAAAAAAAAAAAAAAAAAAAAAAAAAAAAAAAAAAAAAAAAAAB3XxTaphrPhGpc5FHky0arJ2OGXFj7sscEn8JZXSsltlFeM11z/AE0T+8xDluVu2mjBKLOP6rSP2iZevLB0zU3pBo3Fg6ZqbwLe0PX3AW9oevuA8N+p5G9lY+zoAsHTNTeBYOmam8C3tD19wFvaHr7gPDfqeRvZWPs6ALB0zU3gWDpmpvAt7Q9fcBb2h6+4Dw36nkb2Vj7OgCwdM1N4Fg6ZqbwLe0PX3AW9oevuA8N+p5G9lY+zoAsHTNTeBYOmam8HizjMwwS8LdY0mCa5P5TR6POyyY8fd5OSHHqo25R7KLLdBaTH9UUz+298EocmFtNrucson+mqqP33/i6raI6EAAAAAAAAAAAAAAAAAAAA5dElxTcvWZFjosa20nGnOci60qxVpSv06MPlR6AAAAAAAAAAAAAAAAAAAAAAAAAAAAAAAAAAAAAAAAAAAAAAAAAAAAAAAAAAAAAAAAAd+8Tj6fVv/pMXvYHUclP4pa9z/aHJcr/4TY/9n+tT2C74jsAyIAK9Q5xd2grgAyIAK9Q5xd2grgAyIAK9Q5xd2grgAyIAK9Q5xd2grgA8McZnxnzv5Gj/AMJUc8pv49Pcp+KTWSrm9Hfq+Dqhz50kAAAAAAAAAAAAAAAAAAAByqLzcvWZFjosa20nHnOci60qxVpSv06MPlR6AAAAAAAAAAAAAAAAAAAAAAAAAAAAAAAAAAAAAAAAAAAAAAAAAAAAAAAAAAAAAAAAAd+8Tj6fVv8A6TF72B1HJT+KWvc/2hyXK/8AhNj/ANn+tT2C74jsAyIAK9Q5xd2grgAyIAK9Q5xd2grgAyIAK9Q5xd2grgAyIAK9Q5xd2grgA8McZnxnzv5Gj/wlRzym/j09yn4pNZKub0d+r4OqHPnSQAAAAAAAAAAAAAAAAAAAHKovNy9ZkWOixrbSfwnedj60qxVpSv06MPhR6AAAAAAAAAAAAAAAAAAAAAAAAAAAAAAAAAAAAAAAAAAAAAAAAAAAAAAAAAAAAAAAAAd2cVP6bVn/AKbL72B1HJT+KWvc/wBoclyv/hNj/wBn+tT1I74jsA1wAJFfZve2AkAA1wAJFfZve2AkAA1wAJFfZve2AkAA1wAJFfZve2AkAA8qcbLxuT3+n0b+ESOeU38enuU/FJrJVzejv1fB00586SAAAAAAAAAAAAAAAAAAAA5lD5qXrMix0WNbaTjTvOx9aVYq0pX6dGHwo9AAAAAAAAAAAAAAAAAAAAAAAAAAAAAAAAAAAAAAAAAAAAAAAAAAAAAAAAAAAAAAAAAO7OKn9Nqz/wBNl97A6jkp/FLXuf7Q5Llf/CbH/s/1qepHfEdgGuABIr7N72wEgAGuABIr7N72wEgAGuABIr7N72wEgAGuABIr7N72wEgAHlTjZeNye/0+jfwiRzym/j09yn4pNZKub0d+r4OmnPnSQAAAAAAAAAAAAAAAAAAAHMofNS9ZkWOixrbScad5yPrSrFWlK/Tow+FHoAAAAAAAAAAAAAAAAAAAAAAAAAAAAAAAAAAAAAAAAAAAAAAAAAAAAAAAAAAAAAAAAB3pxRqH8sw6rWb5TIxVXFL3seP+1gdRyU/ilr3P9oclyv8A4TY/9n+tT1nYOmam93xHYsHTNTeBb2h6+4C3tD19wHhv1PI3srH2dAFg6ZqbwLB0zU3gW9oevuAt7Q9fcB4b9TyN7Kx9nQBYOmam8CwdM1N4FvaHr7gLe0PX3AeG/U8jeysfZ0AWDpmpvAsHTNTeBb2h6+4C3tD19wHhv1PI3srH2dAFg6ZqbwLB0zU3g8bcaWlfK+FadnuTyP8A6CjyYseP6pUc8pv49Pcp+KTWSrm9Hfq+DqFz50kAAAAAAAAAAAAAAAAAAABy6JLim5esyLHRY1tpONOc5F1pVirSlfp0YfKj0AAAAAAAAAAAAAAAAAAAAAAAAAAAAAAAAAAAAAAAAAAAAAAAAAAAAAAAAAAAAAAAAA794nH0+rf/AEmL3sDqOSn8Ute5/tDkuV/8Jsf+z/Wp7Bd8R2AZEAFeoc4u7QVwAZEAFeoc4u7QVwAZEAFeoc4u7QVwAZEAFeoc4u7QVwAeGOMz4z538jR/4So55Tfx6e5T8UmslXN6O/V8HVDnzpIAAAAAAAAAAAAAAAAAAADlUXm5esyLHRY1tpOPOc5F1pVirSlfp0YfKj0AAAAAAAAAAAAAAAAAAAAAAAAAAAAAAAAAAAAAAAAAAAAAAAAAAAAAAAAAAAAAAAAA794nH0+rf/SYvewOo5KfxS17n+0OS5X/AMJsf+z/AFqewXfEdgGRABXqHOLu0FcAGRABXqHOLu0FcAGRABXqHOLu0FcAGRABXqHOLu0FcAHhjjM+M+d/I0f+EqOeU38enuU/FJrJVzejv1fB1Q586SAAAAAAAAAAAAAAAAAAAA5VF5uXrMix0WNbaT+E7zsfWlWKtKV+nRh8KPQAAAAAAAAAAAAAAAAAAAAAAAAAAAAAAAAAAAAAAAAAAAAAAAAAAAAAAAAAAAAAAAADuzip/Tas/wDTZfewOo5KfxS17n+0OS5X/wAJsf8As/1qepHfEdgGuABIr7N72wEgAGuABIr7N72wEgAGuABIr7N72wEgAGuABIr7N72wEgAHlTjZeNye/wBPo38Ikc8pv49Pcp+KTWSrm9Hfq+Dppz50kAAAAAAAAAAAAAAAAAAABzKHzUvWZFjosa20nGnedj60qxVpSv06MPhR6AAAAAAAAAAAAAAAAAAAAAAAAAAAAAAAAAAAAAAAAAAAAAAAAAAAAAAAAAAAAAAAAAd2cVP6bVn/AKbL72B1HJT+KWvc/wBoclyv/hNj/wBn+tT1I74jsA1wAJFfZve2AkAA1wAJFfZve2AkAA1wAJFfZve2AkAA1wAJFfZve2AkAA8qcbLxuT3+n0b+ESOeU38enuU/FJrJVzejv1fB00586SAAAAAAAAAAAAAAAAAAAA5lD5qXrMix0WNbaTjTvOR9aVYq0pX6dGHwo9AAAAAAAAAAAAAAAAAAAAAAAAAAAAAAAAAAAAAAAAAAAAAAAAAAAAAAAAAAAAAAAAAO9OKNQ/lmHVazfKZGKq4pe9jx/wBrA6jkp/FLXuf7Q5Llf/CbH/s/1qes7B0zU3u+I7Fg6ZqbwLe0PX3AW9oevuA8N+p5G9lY+zoAsHTNTeBYOmam8C3tD19wFvaHr7gPDfqeRvZWPs6ALB0zU3gWDpmpvAt7Q9fcBb2h6+4Dw36nkb2Vj7OgCwdM1N4Fg6ZqbwLe0PX3AW9oevuA8N+p5G9lY+zoAsHTNTeBYOmam8HjbjS0r5XwrTs9yeR/9BR5MWPH9UqOeU38enuU/FJrJVzejv1fB1C586SAAAAAAAAAAAAAAAAAAAA5dElxTcvWZFjosa20nGnOci60qxVpSv06MPlR6AAAAAAAAAAAAAAAAAAAAAAAAAAAAAAAAAAAAAAAAAAAAAAAAAAAAAAAAAAAAAAAAAd+cTmWSTD+tpPrlqmL3sDqGSn8Vte5/tDk2V+P/wCRYz//AKf61PYTvqOoDIgAr1DnF3aCuADIgAr1DnF3aCuADIgAr1DnF3aCuADIgAr1DnF3aCuADwvxmJZJeFCekk+qg0eT/iVHPKZP/wDeq7lPxSbyVxvbnqe/V8HVLnzpAAAAAAAAAAAAAAAAAAAADlUXm5esyLHRY1tpOPOc5F1pVirSlfp0YfKj0AAAAAAAAAAAAAAAAAAAAAAAAAAAAAAAAAAAAAAAAAAAAAAAAAAAAAAAAAAAAAAAAA7l4p9aQUDhYmqLHFJJJWFBpFHkx/XFJJJHJ/JK6DkzvMWGOxRP9dNUfH4ObZVLrNvufm0j+iumffHxe2UjEZQGRABXqHOLu0FcAGRABXqHOLu0FcAGRABXqHOLu0FcAGRABXqHOLu0FcAHgTh8rKGsuFSuYoJccNHlmqNJ98E3DJL/AM40ZN395i87oLeY/p3qdkR8Uq8nV1m67nLvE8tW/Vtmd79nXjTW8AAAAAAAAAAAAAAAAAAAAOVRebl6zIsdFjW2k/hO87H1pVirSlfp0YfCj0AAAAAAAAAAAAAAAAAAAAAAAAAAAAAAAAAAAAAAAAAAAAAAAAAAAAAAAAAAAAAAAAAtYF1/HgthXVWEEGPFQaVBOxydMGPFFJ++GWV9PBb/ADheIWN8j+iqJns9P7Pk47h0Ythtvcp/rpmI7fR++895UekTNKo81SqPHJHNT0Ek5BFJ3ooZZMckvYlvZ2lNrRFpRO/Exvx2Shra2dVjXNnXG9MTvT2w/o9vDXAAkV9m97YCQADXAAkV9m97YCQADXAAkV9m97YCQADXAAkV9m97YCQDiVvWdGqWqqXW9NjkgmKHMxz85LL5MMksuxjXy9Wdyu9d5tZ3qaImZ9kMm5XS0v15s7rZRv1VzER7Z3ngmvq3pFf13T67pcsss9T6TOUmPH0xxSy7URL7eq77ebS818tczM+2d9M+43Si4XWzutnyUUxTHsjecBjMsAAAAAAAAAAAAAAAAAAABzKHzUvWZFjosa20nGnedj60qxVpSv06MPhR6AAAAAAAAAAAAAAAAAAAAAAAAAAAAAAAAAAAAAAAAAAAAAAAAAAAAAAAAAAAAAAAAAAesOLhwgQYRYLf/wAWp0/jrCpoZIYJIpe7OUf+7Ld/Vl/ckJk33QRiNw/+faz/AMllyeun0bOTYjblQ3OThmI//RsY/wCK2459Vfp28se13A6S5c1wAJFfZve2AkAA1wAJFfZve2AkAA1wAJFfZve2AkAA1wAJFfZve2AkA6K4zmH8FX1RNYC1dPyfKafinqbky92CZklxwwy9aWTH90npcnynboIu92jCbGfvV8dXqp9Ee2f2j1uxZKNzk3m81Yxbx9yjio9dXpn2R+8+p5kcKSBAAAAAAAAAAAAAAAAAAAAAcyh81L1mRY6LGttJxp3nI+tKsVaUr9OjD4UegAAAAAAAAAAAAAAAAAAAAAAAAAAAAAAAAAAAAAAAAAAAAAAAAAAAAAAAAAAAAAAAAAFjBPCitcDa+ouENTz2RSKNFjxSy/ozkMv60EXTJLJ3H0cJxS8YNe6L5dp3qqdkx6Yn1S+XjGE3bHLlXcb1G/TVHtifRMeuHubg6wlqHhKwcma/qSspJIpZJIaTRoof7SjzuLuwRSY+yX65EosBx267oLpF6u09semmdU/CfSibuh3P3vc5fKrpeo7tXoqjXHxj0NTb2h6+59p8It7Q9fcB4b9TyN7Kx9nQBYOmam8CwdM1N4FvaHr7gLe0PX3AeG/U8jeysfZ0AWDpmpvAsHTNTeBb2h6+4C3tD19wHhv1PI3srH2dAFg6ZqbwLB0zU3gW9oevuAt7Q9fcB4b9TyN7Kx9nQDE8K2GlScFuDsdaU+nQz1OnpJYKDQ5JMUU9Oenu9yGT65drXN026S7bnLpNta8dc6NPpmflHpls+5Xcxed098iwso3qI06vREfOfRDw7Xtd1lhHW9Krut6RLPUumTks5ORy9Mv1SdEkknckk6JEYL9frfErzXerxVv11Tvz/wC1R6Er8PuFhhd2oul2p3qKI3oj/wB6Z9LgMRmgAAAAAAAAAAAAAAAAAAAAOXRJcU3L1mRY6LGttJxpznIutKsVaUr9OjD5UegAAAAAAAAAAAAAAAAAAAAAAAAAAAAAAAAAAAAAAAAAAAAAAAAAAAAAAAAAAAAAAAAAAGkwD4QMJeDmvIK8wbpks3H3IZ6Zi7s1PweTHD9cnp78n1Pr4Ljl8wG8xebnVvT6Y9ExqmP/AG8+LjuA3LdDdZut9p349E+mmdcT/wCifS9V8HPDVgph/MzdF5eGrq2xYo6HPxySZUvq4u9FJ/z6EhNzm7XD8fpiz38y19NMzy92fT7/AFI27p9wmJbnKptM37Sx9FcRyd6PR7vW7Bbk0hXqHOLu0FcAGRABXqHOLu0FcAGRABXqHOLu0FcAGRAB19h1xhMFuDqj0ugVdHBW9dRYoYKPNR45uai7vdnI5O9ix/qyd37u+0TdLu8uGB0zY2ExaW2qOSO9Pwjj7HQdy2T3EMfqi2t4mysOlMcc92PjPF2vJeF+GOEGHNdz1f4SU+Ok0qd7kn1QTcP1QQQ96GGToR+xTFb1jN5m9XyrOqnZEaoj0QkfhOEXPBLrTdLlRm0xtmdcz6ZRHzn0wAAAAAAAAAAAAAAAAAAAAAHKovNy9ZkWOixrbScec5yLrSrFWlK/Tow+VHoAAAAAAAAAAAAAAAAAAAAAAAAAAAAAAAAAAAAAAAAAAAAAAAAAAAAAAAAAAAAAAAAAAAB/sMUUEUkcEUsMUMuOSWSXFLJKrEzTO/CkxFUb0uxsEuH3hDwVggo0VYw1pRIMUkkzTpJY5ZJOiSP9aTtlbphG7/GcKiKJr+0oj0V8f78v7tExnJ1geLzNpFH2Vc+mji2xyftDt3BXjfVBR4Y4cIcFKdMxTmLHFRJ2Gdh7mP6osmX62+XPKxdaoiL3d6qZ/tmJj995z6+5Hb3RMzc7zTVH90TE/tvtjNcbbgmjhkijlribl6IqHJL/AAifYpyn4FMcefH5f5fEqyUboKZ3ozJ/N/D7+dnwR/b1t/sv/Z68puA66/0/y8+SrdDqo/V/CB85ngw+2rP/AGm88puA66/0/wAnkq3Q6qP1fwfOZ4MPtqz/ANpvPKbgOuv9P8nkq3Q6qP1fw59V8abgqonK8tP1r+nixYqHj6fT6Tym4Drr/T/J5Kt0Oqj9X8KHzs+CP7etv9l/7HlNwHXX+n+TyVbodVH6v4PnZ8Ef29bf7L/2PKbgOuv9P8nkq3Q6qP1fwgfOZ4MPtqz/ANpvPKbgOuv9P8nkq3Q6qP1fwfOZ4MPtqz/2m88puA66/wBP8nkq3Q6qP1fw59V8abgqonK8tP1r+nixYqHj6fT6Tym4Drr/AE/yeSrdDqo/V/Ch87Pgj+3rb/Zf+x5TcB11/p/k8lW6HVR+r+H857jb8FE3DLFNSVzOy9ENDkk/jFI8V5T8DpjfjPn8v8vdGSjH6p3qsyPzfKHX1ccbGrIIIoagwUpM9H/djpc9DBD2Q45f+Xxb5lZsKYmLnd5mddUxH7Rv+9925ZHbxVMTfbzERqpiZnbO97nVmF/Dlwg4XwR0afrX5BQ4+5LR6FJLNySydEsWPKl7cTQcY3c4zjETRXaZlE/008W2eWdrouC7gMEwWYtKLPPrj+qvj2RyRsYCWWWWXHLLjllafyt05H+CoAAAAAAAAAAAAAAAAAAAAAADlUXm5esyLHRY1tpP4TvOx9aVYq0pX6dGHwo9AAAAAAAAAAAAAAAAAAAAAAAAAAAAAAAAAAAAAAAAAAAAAAAAAAAAAAAAAAAAAAAAAAAAAAAAAAAAAAAAAAAAAAAAAAAAAAAAAAAAAAAAAAAAAAOZQ+al6zIsdFjW2k407zsfWlWKtKV+nRh8KPQAAAAAAAAAAAAAAAAAAAAAAAAAAAAAAAAAAAAAAAAAAAAAAAAAAAAAAAAAAAAAAAAAAAAAAAAAAAAAAAAAAAAAAAAAAAAAAAAAAAAAAAAAAAAADmUPmpesyLHRY1tpONO85H1pVirSlfp0YfCj0AAAAAAAAAAAAAAAAAAAAAAAAAAAAAAAAAAAAAAAAAAAAAAAAAAAAAAAAAAAAAAAAAAAAAAAAAAAAAAAAAAAAAAAAAAAAAAAAAAAAAAAAAAAAAA5dElxTcvWZFjosa20nGnOci60qxVpSv06MPlR6AAAAAAAAAAAAAAAAAAAAAAAAAAAAAAAAAAAAAAAAAAAAAAAAAAAAAAAAAAAAAAAAAAAAAAAAAAAAAAAAAAAAAAAAAAAAAAAAAAAAAAAAAAAAAAcqi83L1mRY6LGttJx5znIutKsVaUr9OjD5UegAAAAAAAAAAAAAAAAAAAAAAAAAAAAAAAAAAAAAAAAAAAAAAAAAAAAAAAAAAAAAAAAAAAAAAAAAAAAAAAAAAAAAAAAAAAAAAAAAAAAAAAAAAAAAHKovNy9ZkWOixrbSfwnedj60qxVpSv06MPhR6AAAAAAAAAAAAAAAAAAAAAAAAAAAAAAAAAAAAAAAAAAAAAAAAAAAAAAAAAAAAAAAAAAAAAAAAAAAAAAAAAAAAAAAAAAAAAAAAAAAAAAAAAAAAAAcyh81L1mRY6LGttJxp3nY+tKsVaUr9OjD4UegAAAAAAAAAAAAAAAAAAAAAAAAAAAAAAAAAAAAAAAAAAAAAAAAAAAAAAAAAAAAAAAAAAAAAAAAAAAAAAAAAAAAAAAAAAAAAAAAAAAAAAAAAAAAAHMofNS9ZkWOixrbScad5yPrSrFWlK/Tow+FHoAAAAAAAAAAAAAAAAAAAAAAAAAAAAAAAAAAAAAAAAAAAAAAAAAAAAAAAAAAAAAAAAAAAAAAAAAAAAAAAAAAAAAAAAAAAAAAAAAAAAAAAAAAAAABy6JLim5esyLHRY1tpONOc5F1pVirSlfp0YfKj0AAAAAAAAAAAAAAAAAAAAAAAAAAAAAAAAAAAAAAAAAAAAAAAAAAAAAAAAAAAAAAAAAAAAAAAAAAAAAAAAAAAAAAAAAAAAAAAAAAAAAAAAAAAAAA5VF5uXrMix0WNbaTjznORdaVYq0pX6dGHyo9AAAAAAAAAAAAAAAAAAAAAAAAAAAAAAAAAAAAAAAAAAAAAAAAAAAAAAAAAAAAAAAAAAAAAAAAAAAAAAAAAAAAAAAAAAAAAAAAAAAAAAAAAAAAAAOVRebl6zIsdFjW2k/hO87H1pVirSlfp0YfCj0AAAAAAAAAAAAAAAAAAAAAAAAAAAAAAAAAAAAAAAAAAAAAAAAAAAAAAAAAAAAAAAAAAAAAAAAAAAAAAAAAAAAAAAAAAAAAAAAAAAAAAAAAAAAAA5lD5qXrMix0WNbaTjTvOx9aVYq0pX6dGHwo9AAAAAAAAAAAAAAAAAAAAAAAAAAAAAAAAAAAAAAAAAAAAAAAAAAAAAAAAAAAAAAAAAAAAAAAAAAAAAAAAAAAAAAAAAAAAAAAAAAAAAAAAAAAAAAOZQ+al6zIsdFjW2k407zkfWlWKtKV+nRh8KPQAAAAAAAAAAAAAAAAAAAAAAAAAAAAAAAAAAAAAAAAAAAAAAAAAAAAAAAAAAAAAAAAAAAAAAAAAAAAAAAAAAAAAAAAAAAAAAAAAAAAAAAAAAAAADl0SXFNy9ZkWOixrbScac5yLrSrFWlK/Tow+VHoAAAAAAAAAAAAAAAAAAAAAAAAAAAAAAAAAAAAAAAAAAAAAAAAAAAAAAAAAAAAAAAAAAAAAAAAAAAAAAAAAAAAAAAAAAAAAAAAAAAAAAAAAAAAAByqLzcvWZFjosa20nHnOci60qxVpSv06MPlR6AAAAAAAAAAAAAAAAAAAAAAAAAAAAAAAAAAAAAAAAAAAAAAAAAAAAAAAAAAAAAAAAAAAAAAAAAAAAAAAAAAAAAAAAAAAAAAAAAAAAAAAAAAAAAAcqi83L1mRY6LGttJ/Cd52PrSrFWlK/Tow+FHoAAAAAAAAAAAAAAAAAAAAAAAAAAAAAAAAAAAAAAAAAAAAAAAAAAAAAAAAAAAAAAAAAAAAAAAAAAAAAAAAAAAAAAAAAAAAAAAAAAAAAAAAAAAAABzKHzUvWZFjosa20nGnedj60qxVpSv06MPhR6AAAAAAAAAAAAAAAAAAAAAAAAAAAAAAAAAAAAAAAAAAAAAAAAAAAAAAAAAAAAAAAAAAAAAAAAAAAAAAAAAAAAAAAAAAAAAAAAAAAAAAAAAAAAAAcyh81L1mRY6LGttJxp3nI+tKsVaUr9OjD4UegAAAAAAAAAAAAAAAAAAAAAAAAAAAAAAAAAAAAAAAAAAAAAAAAAAAAAAAAAAAAAAAAAAAAAAAAAAAAAAAAAAAAAAAAAAAAAAAAAAAAAAAAAAAAAHLokuKbl6zIsdFjW2k405zkXWlWKtKV+nRh8qPQAAAAAAAAAAAAAAAAAAAAAAAAAAAAAAAAAAAAAAAAAAAAAAAAAAAAAAAAAAAAAAAAAAAAAAAAAAAAAAAAAAAAAAAAAAAAAAAAAAAAAAAAAAAAADlUXm5esyLHRY1tpP40iCKapE7NRSYooI4oZfvklWrSmaa5pn0Su2VUV0RVHph/N4XAAAAAAAAAAAAAAAAAAAAAAAAAAAAAAAAAAAAAAAAAAAAAAAAAAAAAAAAAAAAAAAAAAAAAAAAAAAAAAAAAAAAAAAAAAAAAAAAAAAAAAAAAAAAAAFWqqtpNMo8U7MwSxSSRyw9zpxSfF9C6Xau2omqmPS+de71Z2FcU1z6FzhfwcjwV4SsIKnim5YIIaZHPTPc783Ofpw4v3RM/dTcJw3GLxd5jizpmOyeOPe+buSxGMUwW7XmJ482Intp4p9zHPgNjAAAAAAAAAAAAAAAAAAAAAAAAAAAAAAAAAAAAAAAAAAAAAAAAAAAAAAAAAAAAAAAAAAAAAAAAAAAAAAAAAAAAAAAAAAAAAAAAAAAAAAAAAAAAAAetOLfwXVfWfBrNVxXFH/tKfTJ6emscP7OTJgk/5gid03A7nLK8YPF4vEcddUzHZxR8JR/yibp7a7Y1N2u08VFNMT28c/GHE43nBzO0yi0ThGqyjyxRUSGSiVjJDJ3eTx/2c5L90sssMv3yLGVHAarWijF7GNH7tfZ6J9nJPsX8k26GmxtK8Gt54qvvUdvpj2xxx2S8rOJO8gAAAAAAAAAAAAAAAAAAAAAAAAAAAAAAAAAAAAAAAAAAAAAAAAAAAAAAAAAAAAAAAAAAAAAAAAAAAAAAAAAAAAAAAAAAAAAAAAAAAAAAAAAAAALeBmClZYb4TUDBiqZuWKfp07JBLFi7k3B/ejl9EkmOV9HCcMtsYvlnc7CPvVTsj0z7IfMxjFLDBbjaX68T92iN/tn0RHrmeJ+ieD9SULBuo6DUFWzeRRqvo8FHmpPRDJixy+mXv/vSyuNzs8Pu1F1sY+7RERHsQ6v8AfbXEb1aXu2nfqrmZn2uBWFPodaUGfq2sKqgpFGpU3FNT01HFjhjgikxSyS9xdt7GzvNnVY2sb9NUb0xPpiVmwt7S62tNtY1b1VM78THomHijhh4Iqx4PK1nKbQJidnqhpM5LLRp/9aWZx/s5yXpk+qX6/vRs3YbkLfc7bzaWUTVYVTxTq/tn16p9KUe4rdpd9013iytZim8Ux96nX/dT6tceh1u0pvYAAAAAAAAAAAAAAAAAAAAAAAAAAAAAAAAAAAAAAAAAAAAAAAAAAAAAAAAAAAAAAAAAAAAAAAAAAAAAAAAAAAAAAAAAAAAAAAAAAAAAAAAAAD+9BoNMrOmTVAq+izlIpM/FJBNzU3DLFFHFL9Ukki7YWFrebSmxsaZqqniiI5ZWbxeLK6WVVtb1RTTTG/MzxREPY3ALwY0fgwqyOtK2ocFIr+nwSSTseV3KPN9/koe53/Kl+uX0SJGbidyNO56w+3vHHb1xx/2x0Y+MoybvN2dW6W8Rd7tvxd6J4v7p6U/CHbVvaHr7m+OepAP4U6gUKs6JO0CsaLNUmjT8MsE5NTkMkUMUkv1SySrVvYWV6s5sbamKqZ4pieOJXrveLW6WtNtYVTTVTxxMcUw6Mwy4qEtZRUmsuD2sJuZlhlypavpcUuT3cfcgnPq73ei7XIcfyXRXVNthFe9/ZVyeyfhO12fc7lZmzpiwxqjf/vp5fbT8Y2Ok8IuCzhDwVnIpuvMEaymIYZcXKwzMs5Ny/dHBjh/5cwv+5vFsNmYvNhVHr3t+Nsb8OsYfunwfFKYm63imfVv707J3pZmOYn5uXJjmZyGXolhlkfGmiqnimH24tKauOJfORH5EXYpmzqVzo1mRH5EXYZs6jOjWcnOeRF2GbOozo1nJzn2cXYZs6jOjWcnOfZxdhmzqM6NZkR+RF2GbOozo1mRH5EXYZs6jOjWcnOeRF2GbOozo1nJzn2cXYZs6jOjWcnOfZxdhmzqM6NZkR+RF2GbOozo1mRH5EXYZs6jOjWcnOeRF2GbOozo1nJzn2cXYZs6jOjWcnOfZxdhmzqM6NZkR+RF2GbOozo1mRH5EXYZs6jOjWcnOeRF2GbOozo1nJzn2cXYZs6jOjWcnOfZxdhmzqM6NZkR+RF2GbOozo1mRH5EXYZs6jOjWcnOeRF2GbOozo1nJzn2cXYZs6jOjWcnOfZxdhmzqM6NZkR+RF2GbOozo1mRH5EXYZs6jOjWcnOeRF2GbOozo1nJzn2cXYZs6jOjWcnOfZxdhmzqM6NZkR+RF2GbOozo1mRH5EXYZs6jOjWcnOeRF2GbOozo1nJzn2cXYZs6jOjWcnOfZxdhmzqM6NZkR+RF2GbOozo1mRH5EXYZs6jOjWcnOeRF2GbOozo1nJzn2cXYZs6jOjWcnOfZxdhmzqM6NZkR+RF2GbOozo1mRH5EXYZs6jOjWcnOeRF2GbOozo1nJzn2cXYZs6jOjWcnOfZxdhmzqM6NZkR+RF2GbOozo1mRH5EXYZs6jOjWcnOeRF2GbOozo1nJzn2cXYZs6jOjWcnOfZxdhmzqM6NZkR+RF2GbOozo1mRH5EXYZs6jOjWcnOeRF2GbOozo1nJzn2cXYZs6jOjWcnOfZxdhmzqM6NZkR+RF2GbOozo1mRH5EXYZs6jOjWcnOeRF2GbOozo1nJzn2cXYZs6jOjWcnOfZxdhmzqM6NZkR+RF2GbOozo1mRH5EXYZs6jOjWcnOeRF2GbOozo1nJzn2cXYZs6jOjWcnOfZxdhmzqM6NZkR+RF2GbOozo1mRH5EXYZs6jOjWcnOeRF2GbOozo1nJzn2cXYZs6jOjWcnOfZxdhmzqM6NZkR+RF2GbOozo1mRH5EXYZs6jOjWcnOeRF2GbOozo1nJzn2cXYZs6jOjWcnOfZxdhmzqM6NZkR+RF2GbOozo1mRH5EXYZs6jOjWcnOeRF2GbOozo1nJzn2cXYZs6jOjWcnOfZxdhmzqM6NZkR+RF2GbOozo1mRH5EXYZs6jOjWcnOeRF2GbOozo1nJzn2cXYZs6jOjWcnOfZxdhmzqM6NZkR+RF2GbOozo1mRH5EXYZs6jOjWcnOeRF2GbOozo1nJzn2cXYZs6jOjWcnOfZxdhmzqM6NZkR+RF2GbOozo1mRH5EXYZs6jOjWcnOeRF2GbOozo1nJzn2cXYZs6jOjWcnOfZxdhmzqM6NZkR+RF2GbOozo1mRH5EXYZs6jOjWcnOeRF2GbOozo1nJzn2cXYZs6jOjWcnOfZxdhmzqM6NZkR+RF2GbOozo1mRH5EXYZs6jOjWcnOeRF2GbOozo1uZQajrqtJ2SZq2qKbS5yLuSQzMxFHLL+6SRfsbneLxVm2NnVVPqiZ9zHt77drtTnW1pTTHrmI97s7AzixcJuFM7NztZVfDUVCilklinqdLinMXom5P0pZfvxNzwnJ3jOJVRNtR9lRrq5fZTy7d5o+M5S8EwumabGv7avVTye2rk2b7v3g74I8FeDqZ5Sr5iWlVjHDkzlOn5JJZyXpkhk70Enok/fLK7Rud3I4fucpzrGM60nlrnl9mqOz2uGbpd2eJbpq823nNso5KI5Pbrnt9kNu2pqIAACvUOcXdoK3f74OPOVbV07FlTtX0aOWX64pqGWX+CzVd7Gqd+qiJ9kL1N5tqY3qa5j2yyNl1Z5uovsYfgpwWw6EbIeuF3jrKtsll1Z5uovsYfgcFsOhGyDhd46yrbKrUVU1VF8ox1ZRZf1e/Mw+n0HBbDoRsg4XeOsq2yrWPVPmuiewh+BwWw6EbIOF3jrKtslj1T5ronsIfgcFsOhGyDhd46yrbLKWXVnm6i+xh+BwWw6EbIOF3jrKtsll1Z5uovsYfgcFsOhGyDhd46yrbKrUVU1VF8ox1ZRZf1e/Mw+n0HBbDoRsg4XeOsq2yrWPVPmuiewh+BwWw6EbIOF3jrKtslj1T5ronsIfgcFsOhGyDhd46yrbLKWXVnm6i+xh+BwWw6EbIOF3jrKtsll1Z5uovsYfgcFsOhGyDhd46yrbKrUVU1VF8ox1ZRZf1e/Mw+n0HBbDoRsg4XeOsq2yrWPVPmuiewh+BwWw6EbIOF3jrKtslj1T5ronsIfgcFsOhGyDhd46yrbLKWXVnm6i+xh+BwWw6EbIOF3jrKtsll1Z5uovsYfgcFsOhGyDhd46yrbKrUVU1VF8ox1ZRZf1e/Mw+n0HBbDoRsg4XeOsq2yrWPVPmuiewh+BwWw6EbIOF3jrKtslj1T5ronsIfgcFsOhGyDhd46yrbLKWXVnm6i+xh+BwWw6EbIOF3jrKtsll1Z5uovsYfgcFsOhGyDhd46yrbKrUVU1VF8ox1ZRZf1e/Mw+n0HBbDoRsg4XeOsq2yrWPVPmuiewh+BwWw6EbIOF3jrKtslj1T5ronsIfgcFsOhGyDhd46yrbLKWXVnm6i+xh+BwWw6EbIOF3jrKtsll1Z5uovsYfgcFsOhGyDhd46yrbKrUVU1VF8ox1ZRZf1e/Mw+n0HBbDoRsg4XeOsq2yrWPVPmuiewh+BwWw6EbIOF3jrKtslj1T5ronsIfgcFsOhGyDhd46yrbLKWXVnm6i+xh+BwWw6EbIOF3jrKtsll1Z5uovsYfgcFsOhGyDhd46yrbKrUVU1VF8ox1ZRZf1e/Mw+n0HBbDoRsg4XeOsq2yrWPVPmuiewh+BwWw6EbIOF3jrKtslj1T5ronsIfgcFsOhGyDhd46yrbLKWXVnm6i+xh+BwWw6EbIOF3jrKtsll1Z5uovsYfgcFsOhGyDhd46yrbKrUVU1VF8ox1ZRZf1e/Mw+n0HBbDoRsg4XeOsq2yrWPVPmuiewh+BwWw6EbIOF3jrKtslj1T5ronsIfgcFsOhGyDhd46yrbLKWXVnm6i+xh+BwWw6EbIOF3jrKtsll1Z5uovsYfgcFsOhGyDhd46yrbKrUVU1VF8ox1ZRZf1e/Mw+n0HBbDoRsg4XeOsq2yrWPVPmuiewh+BwWw6EbIOF3jrKtslj1T5ronsIfgcFsOhGyDhd46yrbLKWXVnm6i+xh+BwWw6EbIOF3jrKtsll1Z5uovsYfgcFsOhGyDhd46yrbKrUVU1VF8ox1ZRZf1e/Mw+n0HBbDoRsg4XeOsq2yrWPVPmuiewh+BwWw6EbIOF3jrKtslj1T5ronsIfgcFsOhGyDhd46yrbLKWXVnm6i+xh+BwWw6EbIOF3jrKtsll1Z5uovsYfgcFsOhGyDhd46yrbKrUVU1VF8ox1ZRZf1e/Mw+n0HBbDoRsg4XeOsq2yrWPVPmuiewh+BwWw6EbIOF3jrKtslj1T5ronsIfgcFsOhGyDhd46yrbLKWXVnm6i+xh+BwWw6EbIOF3jrKtsll1Z5uovsYfgcFsOhGyDhd46yrbKrUVU1VF8ox1ZRZf1e/Mw+n0HBbDoRsg4XeOsq2yrWPVPmuiewh+BwWw6EbIOF3jrKtslj1T5ronsIfgcFsOhGyDhd46yrbLKWXVnm6i+xh+BwWw6EbIOF3jrKtsll1Z5uovsYfgcFsOhGyDhd46yrbKrUVU1VF8ox1ZRZf1e/Mw+n0HBbDoRsg4XeOsq2yrWPVPmuiewh+BwWw6EbIOF3jrKtslj1T5ronsIfgcFsOhGyDhd46yrbLKWXVnm6i+xh+BwWw6EbIOF3jrKtsll1Z5uovsYfgcFsOhGyDhd46yrbKrUVU1VF8ox1ZRZf1e/Mw+n0HBbDoRsg4XeOsq2yrWPVPmuiewh+BwWw6EbIOF3jrKtslj1T5ronsIfgcFsOhGyDhd46yrbLKWXVnm6i+xh+BwWw6EbIOF3jrKtsll1Z5uovsYfgcFsOhGyDhd46yrbKrUVU1VF8ox1ZRZf1e/Mw+n0HBbDoRsg4XeOsq2yrWPVPmuiewh+BwWw6EbIOF3jrKtslj1T5ronsIfgcFsOhGyDhd46yrbLKWXVnm6i+xh+BwWw6EbIOF3jrKtsll1Z5uovsYfgcFsOhGyDhd46yrbKrUVU1VF8ox1ZRZf1e/Mw+n0HBbDoRsg4XeOsq2yrWPVPmuiewh+BwWw6EbIOF3jrKtslj1T5ronsIfgcFsOhGyDhd46yrbLKWXVnm6i+xh+BwWw6EbIOF3jrKtsll1Z5uovsYfgcFsOhGyDhd46yrbKrUVU1VF8ox1ZRZf1e/Mw+n0HBbDoRsg4XeOsq2yrWPVPmuiewh+BwWw6EbIOF3jrKtslj1T5ronsIfgcFsOhGyDhd46yrbLKWXVnm6i+xh+BwWw6EbIOF3jrKtsll1Z5uovsYfgcFsOhGyDhd46yrbKrUVU1VF8ox1ZRZf1e/Mw+n0HBbDoRsg4XeOsq2yrWPVPmuiewh+BwWw6EbIOF3jrKtslj1T5ronsIfgcFsOhGyDhd46yrbLKWXVnm6i+xh+BwWw6EbIOF3jrKtsll1Z5uovsYfgcFsOhGyDhd46yrbKrUVU1VF8ox1ZRZf1e/Mw+n0HBbDoRsg4XeOsq2yrWPVPmuiewh+BwWw6EbIOF3jrKtslj1T5ronsIfgcFsOhGyDhd46yrbLKWXVnm6i+xh+BwWw6EbIOF3jrKtsll1Z5uovsYfgcFsOhGyDhd46yrbKrUVU1VF8ox1ZRZf1e/Mw+n0HBbDoRsg4XeOsq2yrWPVPmuiewh+BwWw6EbIOF3jrKtslj1T5ronsIfgcFsOhGyDhd46yrbLKWXVnm6i+xh+BwWw6EbIOF3jrKtsll1Z5uovsYfgcFsOhGyDhd46yrbKrUVU1XL8ox1bRZf1f2MPp9BwWw6EbIOF3jrJ2yvTUxMTEmTMTM3NydEEMkn8F2mimjipjeWq7Squd+qd9/R6eGRAAB/9k=;" vertex="1" parent="1">
          <mxGeometry x="10" y="10" width="80" height="85.34" as="geometry" />
        </mxCell>
        <mxCell id="ARlSl7viPa6SG5bke6_x-4" value="" style="edgeStyle=orthogonalEdgeStyle;rounded=0;orthogonalLoop=1;jettySize=auto;html=1;" edge="1" parent="1" source="ARlSl7viPa6SG5bke6_x-3" target="ARlSl7viPa6SG5bke6_x-1">
          <mxGeometry relative="1" as="geometry" />
        </mxCell>
        <mxCell id="ARlSl7viPa6SG5bke6_x-3" value="MicroServico&lt;br&gt;Produtor" style="rounded=1;whiteSpace=wrap;html=1;fillColor=#dae8fc;strokeColor=#6c8ebf;" vertex="1" parent="1">
          <mxGeometry x="20" y="140" width="120" height="60" as="geometry" />
        </mxCell>
        <mxCell id="ARlSl7viPa6SG5bke6_x-5" value="MicroServico&lt;br&gt;Consumidor" style="whiteSpace=wrap;html=1;strokeWidth=2;fillColor=#fff2cc;strokeColor=#d6b656;" vertex="1" parent="1">
          <mxGeometry x="460" y="140" width="120" height="60" as="geometry" />
        </mxCell>
        <mxCell id="ARlSl7viPa6SG5bke6_x-7" value="" style="shape=message;html=1;whiteSpace=wrap;html=1;outlineConnect=0;fillColor=#f5f5f5;fontColor=#333333;strokeColor=#666666;" vertex="1" parent="1">
          <mxGeometry x="220" y="200" width="50" height="30" as="geometry" />
        </mxCell>
        <mxCell id="ARlSl7viPa6SG5bke6_x-8" value="" style="shape=message;html=1;whiteSpace=wrap;html=1;outlineConnect=0;fillColor=#dae8fc;strokeColor=#6c8ebf;" vertex="1" parent="1">
          <mxGeometry x="280" y="200" width="50" height="30" as="geometry" />
        </mxCell>
        <mxCell id="ARlSl7viPa6SG5bke6_x-9" value="" style="shape=message;html=1;whiteSpace=wrap;html=1;outlineConnect=0;fillColor=#d5e8d4;strokeColor=#82b366;" vertex="1" parent="1">
          <mxGeometry x="340" y="200" width="50" height="30" as="geometry" />
        </mxCell>
        <mxCell id="ARlSl7viPa6SG5bke6_x-11" value="Mensagens" style="text;html=1;align=center;verticalAlign=middle;resizable=0;points=[];autosize=1;strokeColor=none;fillColor=none;" vertex="1" parent="1">
          <mxGeometry x="260" y="230" width="90" height="30" as="geometry" />
        </mxCell>
      </root>
    </mxGraphModel>
  </diagram>
</mxfile>
